<mxfile host="app.diagrams.net" agent="Mozilla/5.0 (X11; Linux x86_64; rv:131.0) Gecko/20100101 Firefox/131.0" version="25.0.3">
  <diagram name="Page-1" id="unfXA8FlNYon-j27rp8C">
    <mxGraphModel dx="5736" dy="3866" grid="1" gridSize="10" guides="1" tooltips="1" connect="1" arrows="1" fold="1" page="1" pageScale="1" pageWidth="1400" pageHeight="850" math="0" shadow="0">
      <root>
        <mxCell id="0" />
        <mxCell id="1" parent="0" />
        <mxCell id="CV0nj1p-MBl6-TNDZYEt-18" value="&lt;span style=&quot;background-color: rgb(153, 193, 241);&quot;&gt;CLIENT&lt;/span&gt;" style="text;html=1;align=center;verticalAlign=middle;resizable=0;points=[];autosize=1;strokeColor=none;fillColor=none;fontSize=32;" parent="1" vertex="1">
          <mxGeometry x="60" y="-180" width="140" height="50" as="geometry" />
        </mxCell>
        <mxCell id="CV0nj1p-MBl6-TNDZYEt-22" value="&lt;font style=&quot;font-size: 32px; background-color: rgb(153, 193, 241);&quot;&gt;TRANSACTION&lt;/font&gt;" style="text;html=1;align=center;verticalAlign=middle;resizable=0;points=[];autosize=1;strokeColor=none;fillColor=none;" parent="1" vertex="1">
          <mxGeometry x="70" y="90" width="250" height="50" as="geometry" />
        </mxCell>
        <mxCell id="CV0nj1p-MBl6-TNDZYEt-23" value="" style="shape=table;startSize=0;container=1;collapsible=0;childLayout=tableLayout;fontSize=16;" parent="1" vertex="1">
          <mxGeometry x="82" y="195" width="1248" height="85" as="geometry" />
        </mxCell>
        <mxCell id="CV0nj1p-MBl6-TNDZYEt-24" value="" style="shape=tableRow;horizontal=0;startSize=0;swimlaneHead=0;swimlaneBody=0;strokeColor=inherit;top=0;left=0;bottom=0;right=0;collapsible=0;dropTarget=0;fillColor=none;points=[[0,0.5],[1,0.5]];portConstraint=eastwest;fontSize=16;" parent="CV0nj1p-MBl6-TNDZYEt-23" vertex="1">
          <mxGeometry width="1248" height="85" as="geometry" />
        </mxCell>
        <mxCell id="CV0nj1p-MBl6-TNDZYEt-25" value="&lt;u&gt;Tracking_code&lt;/u&gt;" style="shape=partialRectangle;html=1;whiteSpace=wrap;connectable=0;strokeColor=inherit;overflow=hidden;fillColor=none;top=0;left=0;bottom=0;right=0;pointerEvents=1;fontSize=16;" parent="CV0nj1p-MBl6-TNDZYEt-24" vertex="1">
          <mxGeometry width="156" height="85" as="geometry">
            <mxRectangle width="156" height="85" as="alternateBounds" />
          </mxGeometry>
        </mxCell>
        <mxCell id="CV0nj1p-MBl6-TNDZYEt-26" value="&lt;span style=&quot;&quot;&gt;Status&lt;/span&gt;" style="shape=partialRectangle;html=1;whiteSpace=wrap;connectable=0;strokeColor=inherit;overflow=hidden;fillColor=none;top=0;left=0;bottom=0;right=0;pointerEvents=1;fontSize=16;labelBackgroundColor=default;" parent="CV0nj1p-MBl6-TNDZYEt-24" vertex="1">
          <mxGeometry x="156" width="157" height="85" as="geometry">
            <mxRectangle width="157" height="85" as="alternateBounds" />
          </mxGeometry>
        </mxCell>
        <mxCell id="CV0nj1p-MBl6-TNDZYEt-27" value="&lt;span style=&quot;&quot;&gt;Timestamp&lt;/span&gt;" style="shape=partialRectangle;html=1;whiteSpace=wrap;connectable=0;strokeColor=inherit;overflow=hidden;fillColor=none;top=0;left=0;bottom=0;right=0;pointerEvents=1;fontSize=16;labelBackgroundColor=default;" parent="CV0nj1p-MBl6-TNDZYEt-24" vertex="1">
          <mxGeometry x="313" width="154" height="85" as="geometry">
            <mxRectangle width="154" height="85" as="alternateBounds" />
          </mxGeometry>
        </mxCell>
        <mxCell id="CV0nj1p-MBl6-TNDZYEt-36" value="LSC_Number" style="shape=partialRectangle;html=1;whiteSpace=wrap;connectable=0;strokeColor=inherit;overflow=hidden;fillColor=none;top=0;left=0;bottom=0;right=0;pointerEvents=1;fontSize=16;" parent="CV0nj1p-MBl6-TNDZYEt-24" vertex="1">
          <mxGeometry x="467" width="157" height="85" as="geometry">
            <mxRectangle width="157" height="85" as="alternateBounds" />
          </mxGeometry>
        </mxCell>
        <mxCell id="CV0nj1p-MBl6-TNDZYEt-37" value="SC_Number" style="shape=partialRectangle;html=1;whiteSpace=wrap;connectable=0;strokeColor=inherit;overflow=hidden;fillColor=none;top=0;left=0;bottom=0;right=0;pointerEvents=1;fontSize=16;" parent="CV0nj1p-MBl6-TNDZYEt-24" vertex="1">
          <mxGeometry x="624" width="156" height="85" as="geometry">
            <mxRectangle width="156" height="85" as="alternateBounds" />
          </mxGeometry>
        </mxCell>
        <mxCell id="CV0nj1p-MBl6-TNDZYEt-38" value="ISSU_FC_ID" style="shape=partialRectangle;html=1;whiteSpace=wrap;connectable=0;strokeColor=inherit;overflow=hidden;fillColor=none;top=0;left=0;bottom=0;right=0;pointerEvents=1;fontSize=16;" parent="CV0nj1p-MBl6-TNDZYEt-24" vertex="1">
          <mxGeometry x="780" width="157" height="85" as="geometry">
            <mxRectangle width="157" height="85" as="alternateBounds" />
          </mxGeometry>
        </mxCell>
        <mxCell id="CV0nj1p-MBl6-TNDZYEt-39" value="SUB_FC_ID" style="shape=partialRectangle;html=1;whiteSpace=wrap;connectable=0;strokeColor=inherit;overflow=hidden;fillColor=none;top=0;left=0;bottom=0;right=0;pointerEvents=1;fontSize=16;" parent="CV0nj1p-MBl6-TNDZYEt-24" vertex="1">
          <mxGeometry x="937" width="155" height="85" as="geometry">
            <mxRectangle width="155" height="85" as="alternateBounds" />
          </mxGeometry>
        </mxCell>
        <mxCell id="ULDEpZp45Wt4dGmiCeXJ-34" value="Type" style="shape=partialRectangle;html=1;whiteSpace=wrap;connectable=0;strokeColor=inherit;overflow=hidden;fillColor=none;top=0;left=0;bottom=0;right=0;pointerEvents=1;fontSize=16;" vertex="1" parent="CV0nj1p-MBl6-TNDZYEt-24">
          <mxGeometry x="1092" width="156" height="85" as="geometry">
            <mxRectangle width="156" height="85" as="alternateBounds" />
          </mxGeometry>
        </mxCell>
        <mxCell id="CV0nj1p-MBl6-TNDZYEt-43" value="&lt;font style=&quot;font-size: 32px; background-color: rgb(153, 193, 241);&quot;&gt;DISCOUNT_CODE&lt;/font&gt;" style="text;html=1;align=center;verticalAlign=middle;resizable=0;points=[];autosize=1;strokeColor=none;fillColor=none;" parent="1" vertex="1">
          <mxGeometry x="2419" y="100" width="300" height="50" as="geometry" />
        </mxCell>
        <mxCell id="CV0nj1p-MBl6-TNDZYEt-44" value="" style="shape=table;startSize=0;container=1;collapsible=0;childLayout=tableLayout;fontSize=16;" parent="1" vertex="1">
          <mxGeometry x="2430" y="180" width="1020" height="80" as="geometry" />
        </mxCell>
        <mxCell id="CV0nj1p-MBl6-TNDZYEt-45" value="" style="shape=tableRow;horizontal=0;startSize=0;swimlaneHead=0;swimlaneBody=0;strokeColor=inherit;top=0;left=0;bottom=0;right=0;collapsible=0;dropTarget=0;fillColor=none;points=[[0,0.5],[1,0.5]];portConstraint=eastwest;fontSize=16;" parent="CV0nj1p-MBl6-TNDZYEt-44" vertex="1">
          <mxGeometry width="1020" height="80" as="geometry" />
        </mxCell>
        <mxCell id="CV0nj1p-MBl6-TNDZYEt-46" value="&lt;u&gt;Code&lt;/u&gt;" style="shape=partialRectangle;html=1;whiteSpace=wrap;connectable=0;strokeColor=inherit;overflow=hidden;fillColor=none;top=0;left=0;bottom=0;right=0;pointerEvents=1;fontSize=16;" parent="CV0nj1p-MBl6-TNDZYEt-45" vertex="1">
          <mxGeometry width="127" height="80" as="geometry">
            <mxRectangle width="127" height="80" as="alternateBounds" />
          </mxGeometry>
        </mxCell>
        <mxCell id="CV0nj1p-MBl6-TNDZYEt-47" value="&lt;span style=&quot;&quot;&gt;Amount&lt;/span&gt;" style="shape=partialRectangle;html=1;whiteSpace=wrap;connectable=0;strokeColor=inherit;overflow=hidden;fillColor=none;top=0;left=0;bottom=0;right=0;pointerEvents=1;fontSize=16;labelBackgroundColor=default;" parent="CV0nj1p-MBl6-TNDZYEt-45" vertex="1">
          <mxGeometry x="127" width="128" height="80" as="geometry">
            <mxRectangle width="128" height="80" as="alternateBounds" />
          </mxGeometry>
        </mxCell>
        <mxCell id="CV0nj1p-MBl6-TNDZYEt-57" value="&lt;span style=&quot;&quot;&gt;Usage_count&lt;/span&gt;" style="shape=partialRectangle;html=1;whiteSpace=wrap;connectable=0;strokeColor=inherit;overflow=hidden;fillColor=none;top=0;left=0;bottom=0;right=0;pointerEvents=1;fontSize=16;labelBackgroundColor=default;" parent="CV0nj1p-MBl6-TNDZYEt-45" vertex="1">
          <mxGeometry x="255" width="128" height="80" as="geometry">
            <mxRectangle width="128" height="80" as="alternateBounds" />
          </mxGeometry>
        </mxCell>
        <mxCell id="CV0nj1p-MBl6-TNDZYEt-58" value="&lt;span style=&quot;&quot;&gt;Expiration_date&lt;/span&gt;" style="shape=partialRectangle;html=1;whiteSpace=wrap;connectable=0;strokeColor=inherit;overflow=hidden;fillColor=none;top=0;left=0;bottom=0;right=0;pointerEvents=1;fontSize=16;labelBackgroundColor=default;" parent="CV0nj1p-MBl6-TNDZYEt-45" vertex="1">
          <mxGeometry x="383" width="129" height="80" as="geometry">
            <mxRectangle width="129" height="80" as="alternateBounds" />
          </mxGeometry>
        </mxCell>
        <mxCell id="CV0nj1p-MBl6-TNDZYEt-59" value="&lt;span style=&quot;&quot;&gt;Limit&lt;/span&gt;" style="shape=partialRectangle;html=1;whiteSpace=wrap;connectable=0;strokeColor=inherit;overflow=hidden;fillColor=none;top=0;left=0;bottom=0;right=0;pointerEvents=1;fontSize=16;labelBackgroundColor=default;" parent="CV0nj1p-MBl6-TNDZYEt-45" vertex="1">
          <mxGeometry x="512" width="127" height="80" as="geometry">
            <mxRectangle width="127" height="80" as="alternateBounds" />
          </mxGeometry>
        </mxCell>
        <mxCell id="m6St6NsRdLUoVX5ji24v-147" value="FC_ID" style="shape=partialRectangle;html=1;whiteSpace=wrap;connectable=0;strokeColor=inherit;overflow=hidden;fillColor=none;top=0;left=0;bottom=0;right=0;pointerEvents=1;fontSize=16;" parent="CV0nj1p-MBl6-TNDZYEt-45" vertex="1">
          <mxGeometry x="639" width="127" height="80" as="geometry">
            <mxRectangle width="127" height="80" as="alternateBounds" />
          </mxGeometry>
        </mxCell>
        <mxCell id="ULDEpZp45Wt4dGmiCeXJ-16" value="&lt;span style=&quot;&quot;&gt;Timestamp&lt;/span&gt;" style="shape=partialRectangle;html=1;whiteSpace=wrap;connectable=0;strokeColor=inherit;overflow=hidden;fillColor=none;top=0;left=0;bottom=0;right=0;pointerEvents=1;fontSize=16;labelBackgroundColor=default;" vertex="1" parent="CV0nj1p-MBl6-TNDZYEt-45">
          <mxGeometry x="766" width="127" height="80" as="geometry">
            <mxRectangle width="127" height="80" as="alternateBounds" />
          </mxGeometry>
        </mxCell>
        <mxCell id="ULDEpZp45Wt4dGmiCeXJ-17" value="Type" style="shape=partialRectangle;html=1;whiteSpace=wrap;connectable=0;strokeColor=inherit;overflow=hidden;fillColor=none;top=0;left=0;bottom=0;right=0;pointerEvents=1;fontSize=16;" vertex="1" parent="CV0nj1p-MBl6-TNDZYEt-45">
          <mxGeometry x="893" width="127" height="80" as="geometry">
            <mxRectangle width="127" height="80" as="alternateBounds" />
          </mxGeometry>
        </mxCell>
        <mxCell id="CV0nj1p-MBl6-TNDZYEt-63" value="&lt;font style=&quot;font-size: 32px; background-color: rgb(153, 193, 241);&quot;&gt;CASE&lt;/font&gt;" style="text;html=1;align=center;verticalAlign=middle;resizable=0;points=[];autosize=1;strokeColor=none;fillColor=none;" parent="1" vertex="1">
          <mxGeometry x="70" y="1420" width="110" height="50" as="geometry" />
        </mxCell>
        <mxCell id="CV0nj1p-MBl6-TNDZYEt-64" value="" style="shape=table;startSize=0;container=1;collapsible=0;childLayout=tableLayout;fontSize=16;" parent="1" vertex="1">
          <mxGeometry x="82" y="1502" width="1969" height="60" as="geometry" />
        </mxCell>
        <mxCell id="CV0nj1p-MBl6-TNDZYEt-65" value="" style="shape=tableRow;horizontal=0;startSize=0;swimlaneHead=0;swimlaneBody=0;strokeColor=inherit;top=0;left=0;bottom=0;right=0;collapsible=0;dropTarget=0;fillColor=none;points=[[0,0.5],[1,0.5]];portConstraint=eastwest;fontSize=16;" parent="CV0nj1p-MBl6-TNDZYEt-64" vertex="1">
          <mxGeometry width="1969" height="60" as="geometry" />
        </mxCell>
        <mxCell id="CV0nj1p-MBl6-TNDZYEt-66" value="&lt;u&gt;F_ID&lt;/u&gt;" style="shape=partialRectangle;html=1;whiteSpace=wrap;connectable=0;strokeColor=inherit;overflow=hidden;fillColor=none;top=0;left=0;bottom=0;right=0;pointerEvents=1;fontSize=16;" parent="CV0nj1p-MBl6-TNDZYEt-65" vertex="1">
          <mxGeometry width="197" height="60" as="geometry">
            <mxRectangle width="197" height="60" as="alternateBounds" />
          </mxGeometry>
        </mxCell>
        <mxCell id="CV0nj1p-MBl6-TNDZYEt-67" value="&lt;span style=&quot;&quot;&gt;Type&lt;/span&gt;" style="shape=partialRectangle;html=1;whiteSpace=wrap;connectable=0;strokeColor=inherit;overflow=hidden;fillColor=none;top=0;left=0;bottom=0;right=0;pointerEvents=1;fontSize=16;labelBackgroundColor=default;" parent="CV0nj1p-MBl6-TNDZYEt-65" vertex="1">
          <mxGeometry x="197" width="196" height="60" as="geometry">
            <mxRectangle width="196" height="60" as="alternateBounds" />
          </mxGeometry>
        </mxCell>
        <mxCell id="CV0nj1p-MBl6-TNDZYEt-68" value="&lt;span style=&quot;&quot;&gt;Width&lt;br&gt;&lt;/span&gt;" style="shape=partialRectangle;html=1;whiteSpace=wrap;connectable=0;strokeColor=inherit;overflow=hidden;fillColor=none;top=0;left=0;bottom=0;right=0;pointerEvents=1;fontSize=16;labelBackgroundColor=default;" parent="CV0nj1p-MBl6-TNDZYEt-65" vertex="1">
          <mxGeometry x="393" width="197" height="60" as="geometry">
            <mxRectangle width="197" height="60" as="alternateBounds" />
          </mxGeometry>
        </mxCell>
        <mxCell id="CV0nj1p-MBl6-TNDZYEt-77" value="&lt;span style=&quot;&quot;&gt;Height&lt;br&gt;&lt;/span&gt;" style="shape=partialRectangle;html=1;whiteSpace=wrap;connectable=0;strokeColor=inherit;overflow=hidden;fillColor=none;top=0;left=0;bottom=0;right=0;pointerEvents=1;fontSize=16;labelBackgroundColor=default;" parent="CV0nj1p-MBl6-TNDZYEt-65" vertex="1">
          <mxGeometry x="590" width="197" height="60" as="geometry">
            <mxRectangle width="197" height="60" as="alternateBounds" />
          </mxGeometry>
        </mxCell>
        <mxCell id="CV0nj1p-MBl6-TNDZYEt-78" value="&lt;span style=&quot;&quot;&gt;Depth&lt;/span&gt;" style="shape=partialRectangle;html=1;whiteSpace=wrap;connectable=0;strokeColor=inherit;overflow=hidden;fillColor=none;top=0;left=0;bottom=0;right=0;pointerEvents=1;fontSize=16;labelBackgroundColor=default;" parent="CV0nj1p-MBl6-TNDZYEt-65" vertex="1">
          <mxGeometry x="787" width="197" height="60" as="geometry">
            <mxRectangle width="197" height="60" as="alternateBounds" />
          </mxGeometry>
        </mxCell>
        <mxCell id="CV0nj1p-MBl6-TNDZYEt-79" value="&lt;span style=&quot;&quot;&gt;Wattage&lt;/span&gt;" style="shape=partialRectangle;html=1;whiteSpace=wrap;connectable=0;strokeColor=inherit;overflow=hidden;fillColor=none;top=0;left=0;bottom=0;right=0;pointerEvents=1;fontSize=16;labelBackgroundColor=default;" parent="CV0nj1p-MBl6-TNDZYEt-65" vertex="1">
          <mxGeometry x="984" width="197" height="60" as="geometry">
            <mxRectangle width="197" height="60" as="alternateBounds" />
          </mxGeometry>
        </mxCell>
        <mxCell id="CV0nj1p-MBl6-TNDZYEt-80" value="&lt;span style=&quot;&quot;&gt;Material&lt;/span&gt;" style="shape=partialRectangle;html=1;whiteSpace=wrap;connectable=0;strokeColor=inherit;overflow=hidden;fillColor=none;top=0;left=0;bottom=0;right=0;pointerEvents=1;fontSize=16;labelBackgroundColor=default;" parent="CV0nj1p-MBl6-TNDZYEt-65" vertex="1">
          <mxGeometry x="1181" width="197" height="60" as="geometry">
            <mxRectangle width="197" height="60" as="alternateBounds" />
          </mxGeometry>
        </mxCell>
        <mxCell id="CV0nj1p-MBl6-TNDZYEt-81" value="&lt;span style=&quot;&quot;&gt;Color&lt;br&gt;&lt;/span&gt;" style="shape=partialRectangle;html=1;whiteSpace=wrap;connectable=0;strokeColor=inherit;overflow=hidden;fillColor=none;top=0;left=0;bottom=0;right=0;pointerEvents=1;fontSize=16;labelBackgroundColor=default;" parent="CV0nj1p-MBl6-TNDZYEt-65" vertex="1">
          <mxGeometry x="1378" width="197" height="60" as="geometry">
            <mxRectangle width="197" height="60" as="alternateBounds" />
          </mxGeometry>
        </mxCell>
        <mxCell id="CV0nj1p-MBl6-TNDZYEt-82" value="&lt;font style=&quot;font-size: 10px;&quot;&gt;Number_of_fans&lt;/font&gt;" style="shape=partialRectangle;html=1;whiteSpace=wrap;connectable=0;strokeColor=inherit;overflow=hidden;fillColor=none;top=0;left=0;bottom=0;right=0;pointerEvents=1;fontSize=16;labelBackgroundColor=default;" parent="CV0nj1p-MBl6-TNDZYEt-65" vertex="1">
          <mxGeometry x="1575" width="197" height="60" as="geometry">
            <mxRectangle width="197" height="60" as="alternateBounds" />
          </mxGeometry>
        </mxCell>
        <mxCell id="CV0nj1p-MBl6-TNDZYEt-83" value="&lt;span style=&quot;&quot;&gt;Fan_size&lt;/span&gt;" style="shape=partialRectangle;html=1;whiteSpace=wrap;connectable=0;strokeColor=inherit;overflow=hidden;fillColor=none;top=0;left=0;bottom=0;right=0;pointerEvents=1;fontSize=16;labelBackgroundColor=default;" parent="CV0nj1p-MBl6-TNDZYEt-65" vertex="1">
          <mxGeometry x="1772" width="197" height="60" as="geometry">
            <mxRectangle width="197" height="60" as="alternateBounds" />
          </mxGeometry>
        </mxCell>
        <mxCell id="CV0nj1p-MBl6-TNDZYEt-84" value="&lt;span style=&quot;background-color: rgb(153, 193, 241);&quot;&gt;RAM_STICK&lt;/span&gt;" style="text;html=1;align=center;verticalAlign=middle;resizable=0;points=[];autosize=1;strokeColor=none;fillColor=none;fontSize=32;" parent="1" vertex="1">
          <mxGeometry x="82" y="1680" width="200" height="50" as="geometry" />
        </mxCell>
        <mxCell id="CV0nj1p-MBl6-TNDZYEt-85" value="" style="shape=table;startSize=0;container=1;collapsible=0;childLayout=tableLayout;fontSize=16;" parent="1" vertex="1">
          <mxGeometry x="82" y="1760" width="1240" height="80" as="geometry" />
        </mxCell>
        <mxCell id="CV0nj1p-MBl6-TNDZYEt-86" value="" style="shape=tableRow;horizontal=0;startSize=0;swimlaneHead=0;swimlaneBody=0;strokeColor=inherit;top=0;left=0;bottom=0;right=0;collapsible=0;dropTarget=0;fillColor=none;points=[[0,0.5],[1,0.5]];portConstraint=eastwest;fontSize=16;" parent="CV0nj1p-MBl6-TNDZYEt-85" vertex="1">
          <mxGeometry width="1240" height="80" as="geometry" />
        </mxCell>
        <mxCell id="CV0nj1p-MBl6-TNDZYEt-87" value="&lt;u&gt;F_ID&lt;/u&gt;" style="shape=partialRectangle;html=1;whiteSpace=wrap;connectable=0;strokeColor=inherit;overflow=hidden;fillColor=none;top=0;left=0;bottom=0;right=0;pointerEvents=1;fontSize=16;" parent="CV0nj1p-MBl6-TNDZYEt-86" vertex="1">
          <mxGeometry width="155" height="80" as="geometry">
            <mxRectangle width="155" height="80" as="alternateBounds" />
          </mxGeometry>
        </mxCell>
        <mxCell id="CV0nj1p-MBl6-TNDZYEt-88" value="&lt;span style=&quot;&quot;&gt;Width&lt;br&gt;&lt;/span&gt;" style="shape=partialRectangle;html=1;whiteSpace=wrap;connectable=0;strokeColor=inherit;overflow=hidden;fillColor=none;top=0;left=0;bottom=0;right=0;pointerEvents=1;fontSize=16;labelBackgroundColor=default;" parent="CV0nj1p-MBl6-TNDZYEt-86" vertex="1">
          <mxGeometry x="155" width="155" height="80" as="geometry">
            <mxRectangle width="155" height="80" as="alternateBounds" />
          </mxGeometry>
        </mxCell>
        <mxCell id="CV0nj1p-MBl6-TNDZYEt-98" value="&lt;span style=&quot;&quot;&gt;Height&lt;br&gt;&lt;/span&gt;" style="shape=partialRectangle;html=1;whiteSpace=wrap;connectable=0;strokeColor=inherit;overflow=hidden;fillColor=none;top=0;left=0;bottom=0;right=0;pointerEvents=1;fontSize=16;labelBackgroundColor=default;" parent="CV0nj1p-MBl6-TNDZYEt-86" vertex="1">
          <mxGeometry x="310" width="155" height="80" as="geometry">
            <mxRectangle width="155" height="80" as="alternateBounds" />
          </mxGeometry>
        </mxCell>
        <mxCell id="CV0nj1p-MBl6-TNDZYEt-99" value="&lt;span style=&quot;&quot;&gt;Depth&lt;br&gt;&lt;/span&gt;" style="shape=partialRectangle;html=1;whiteSpace=wrap;connectable=0;strokeColor=inherit;overflow=hidden;fillColor=none;top=0;left=0;bottom=0;right=0;pointerEvents=1;fontSize=16;labelBackgroundColor=default;" parent="CV0nj1p-MBl6-TNDZYEt-86" vertex="1">
          <mxGeometry x="465" width="155" height="80" as="geometry">
            <mxRectangle width="155" height="80" as="alternateBounds" />
          </mxGeometry>
        </mxCell>
        <mxCell id="CV0nj1p-MBl6-TNDZYEt-100" value="&lt;span style=&quot;&quot;&gt;Wattage&lt;/span&gt;" style="shape=partialRectangle;html=1;whiteSpace=wrap;connectable=0;strokeColor=inherit;overflow=hidden;fillColor=none;top=0;left=0;bottom=0;right=0;pointerEvents=1;fontSize=16;labelBackgroundColor=default;" parent="CV0nj1p-MBl6-TNDZYEt-86" vertex="1">
          <mxGeometry x="620" width="155" height="80" as="geometry">
            <mxRectangle width="155" height="80" as="alternateBounds" />
          </mxGeometry>
        </mxCell>
        <mxCell id="CV0nj1p-MBl6-TNDZYEt-101" value="&lt;span style=&quot;&quot;&gt;Frequency&lt;/span&gt;" style="shape=partialRectangle;html=1;whiteSpace=wrap;connectable=0;strokeColor=inherit;overflow=hidden;fillColor=none;top=0;left=0;bottom=0;right=0;pointerEvents=1;fontSize=16;labelBackgroundColor=default;" parent="CV0nj1p-MBl6-TNDZYEt-86" vertex="1">
          <mxGeometry x="775" width="155" height="80" as="geometry">
            <mxRectangle width="155" height="80" as="alternateBounds" />
          </mxGeometry>
        </mxCell>
        <mxCell id="CV0nj1p-MBl6-TNDZYEt-102" value="&lt;span style=&quot;&quot;&gt;Capacity&lt;/span&gt;" style="shape=partialRectangle;html=1;whiteSpace=wrap;connectable=0;strokeColor=inherit;overflow=hidden;fillColor=none;top=0;left=0;bottom=0;right=0;pointerEvents=1;fontSize=16;labelBackgroundColor=default;" parent="CV0nj1p-MBl6-TNDZYEt-86" vertex="1">
          <mxGeometry x="930" width="155" height="80" as="geometry">
            <mxRectangle width="155" height="80" as="alternateBounds" />
          </mxGeometry>
        </mxCell>
        <mxCell id="ULDEpZp45Wt4dGmiCeXJ-1" value="&lt;span style=&quot;&quot;&gt;Generation&lt;/span&gt;" style="shape=partialRectangle;html=1;whiteSpace=wrap;connectable=0;strokeColor=inherit;overflow=hidden;fillColor=none;top=0;left=0;bottom=0;right=0;pointerEvents=1;fontSize=16;labelBackgroundColor=default;" vertex="1" parent="CV0nj1p-MBl6-TNDZYEt-86">
          <mxGeometry x="1085" width="155" height="80" as="geometry">
            <mxRectangle width="155" height="80" as="alternateBounds" />
          </mxGeometry>
        </mxCell>
        <mxCell id="CV0nj1p-MBl6-TNDZYEt-105" value="&lt;span style=&quot;background-color: rgb(153, 193, 241);&quot;&gt;SSD&lt;/span&gt;" style="text;html=1;align=center;verticalAlign=middle;resizable=0;points=[];autosize=1;strokeColor=none;fillColor=none;fontSize=32;" parent="1" vertex="1">
          <mxGeometry x="88" y="1935" width="90" height="50" as="geometry" />
        </mxCell>
        <mxCell id="CV0nj1p-MBl6-TNDZYEt-106" value="" style="shape=table;startSize=0;container=1;collapsible=0;childLayout=tableLayout;fontSize=16;" parent="1" vertex="1">
          <mxGeometry x="88" y="2030" width="474" height="70" as="geometry" />
        </mxCell>
        <mxCell id="CV0nj1p-MBl6-TNDZYEt-107" value="" style="shape=tableRow;horizontal=0;startSize=0;swimlaneHead=0;swimlaneBody=0;strokeColor=inherit;top=0;left=0;bottom=0;right=0;collapsible=0;dropTarget=0;fillColor=none;points=[[0,0.5],[1,0.5]];portConstraint=eastwest;fontSize=16;" parent="CV0nj1p-MBl6-TNDZYEt-106" vertex="1">
          <mxGeometry width="474" height="70" as="geometry" />
        </mxCell>
        <mxCell id="CV0nj1p-MBl6-TNDZYEt-108" value="&lt;u&gt;F_ID&lt;/u&gt;" style="shape=partialRectangle;html=1;whiteSpace=wrap;connectable=0;strokeColor=inherit;overflow=hidden;fillColor=none;top=0;left=0;bottom=0;right=0;pointerEvents=1;fontSize=16;" parent="CV0nj1p-MBl6-TNDZYEt-107" vertex="1">
          <mxGeometry width="158" height="70" as="geometry">
            <mxRectangle width="158" height="70" as="alternateBounds" />
          </mxGeometry>
        </mxCell>
        <mxCell id="CV0nj1p-MBl6-TNDZYEt-109" value="&lt;span style=&quot;&quot;&gt;Capacity&lt;/span&gt;" style="shape=partialRectangle;html=1;whiteSpace=wrap;connectable=0;strokeColor=inherit;overflow=hidden;fillColor=none;top=0;left=0;bottom=0;right=0;pointerEvents=1;fontSize=16;labelBackgroundColor=default;" parent="CV0nj1p-MBl6-TNDZYEt-107" vertex="1">
          <mxGeometry x="158" width="158" height="70" as="geometry">
            <mxRectangle width="158" height="70" as="alternateBounds" />
          </mxGeometry>
        </mxCell>
        <mxCell id="CV0nj1p-MBl6-TNDZYEt-110" value="&lt;span style=&quot;&quot;&gt;Wattage&lt;/span&gt;" style="shape=partialRectangle;html=1;whiteSpace=wrap;connectable=0;strokeColor=inherit;overflow=hidden;fillColor=none;top=0;left=0;bottom=0;right=0;pointerEvents=1;fontSize=16;labelBackgroundColor=default;" parent="CV0nj1p-MBl6-TNDZYEt-107" vertex="1">
          <mxGeometry x="316" width="158" height="70" as="geometry">
            <mxRectangle width="158" height="70" as="alternateBounds" />
          </mxGeometry>
        </mxCell>
        <mxCell id="CV0nj1p-MBl6-TNDZYEt-119" value="&lt;span style=&quot;background-color: rgb(153, 193, 241);&quot;&gt;MOTHERBOARD&lt;/span&gt;" style="text;html=1;align=center;verticalAlign=middle;resizable=0;points=[];autosize=1;strokeColor=none;fillColor=none;fontSize=32;" parent="1" vertex="1">
          <mxGeometry x="82" y="2168" width="270" height="50" as="geometry" />
        </mxCell>
        <mxCell id="CV0nj1p-MBl6-TNDZYEt-120" value="" style="shape=table;startSize=0;container=1;collapsible=0;childLayout=tableLayout;fontSize=16;" parent="1" vertex="1">
          <mxGeometry x="88" y="2250" width="1135" height="60" as="geometry" />
        </mxCell>
        <mxCell id="CV0nj1p-MBl6-TNDZYEt-121" value="" style="shape=tableRow;horizontal=0;startSize=0;swimlaneHead=0;swimlaneBody=0;strokeColor=inherit;top=0;left=0;bottom=0;right=0;collapsible=0;dropTarget=0;fillColor=none;points=[[0,0.5],[1,0.5]];portConstraint=eastwest;fontSize=16;" parent="CV0nj1p-MBl6-TNDZYEt-120" vertex="1">
          <mxGeometry width="1135" height="60" as="geometry" />
        </mxCell>
        <mxCell id="CV0nj1p-MBl6-TNDZYEt-122" value="&lt;u&gt;F_ID&lt;/u&gt;" style="shape=partialRectangle;html=1;whiteSpace=wrap;connectable=0;strokeColor=inherit;overflow=hidden;fillColor=none;top=0;left=0;bottom=0;right=0;pointerEvents=1;fontSize=16;" parent="CV0nj1p-MBl6-TNDZYEt-121" vertex="1">
          <mxGeometry width="142" height="60" as="geometry">
            <mxRectangle width="142" height="60" as="alternateBounds" />
          </mxGeometry>
        </mxCell>
        <mxCell id="CV0nj1p-MBl6-TNDZYEt-123" value="&lt;span style=&quot;&quot;&gt;Depth&lt;br&gt;&lt;/span&gt;" style="shape=partialRectangle;html=1;whiteSpace=wrap;connectable=0;strokeColor=inherit;overflow=hidden;fillColor=none;top=0;left=0;bottom=0;right=0;pointerEvents=1;fontSize=16;labelBackgroundColor=default;" parent="CV0nj1p-MBl6-TNDZYEt-121" vertex="1">
          <mxGeometry x="142" width="142" height="60" as="geometry">
            <mxRectangle width="142" height="60" as="alternateBounds" />
          </mxGeometry>
        </mxCell>
        <mxCell id="CV0nj1p-MBl6-TNDZYEt-124" value="&lt;span style=&quot;&quot;&gt;Height&lt;br&gt;&lt;/span&gt;" style="shape=partialRectangle;html=1;whiteSpace=wrap;connectable=0;strokeColor=inherit;overflow=hidden;fillColor=none;top=0;left=0;bottom=0;right=0;pointerEvents=1;fontSize=16;labelBackgroundColor=default;" parent="CV0nj1p-MBl6-TNDZYEt-121" vertex="1">
          <mxGeometry x="284" width="142" height="60" as="geometry">
            <mxRectangle width="142" height="60" as="alternateBounds" />
          </mxGeometry>
        </mxCell>
        <mxCell id="CV0nj1p-MBl6-TNDZYEt-133" value="&lt;span style=&quot;&quot;&gt;Width&lt;/span&gt;" style="shape=partialRectangle;html=1;whiteSpace=wrap;connectable=0;strokeColor=inherit;overflow=hidden;fillColor=none;top=0;left=0;bottom=0;right=0;pointerEvents=1;fontSize=16;labelBackgroundColor=default;" parent="CV0nj1p-MBl6-TNDZYEt-121" vertex="1">
          <mxGeometry x="426" width="142" height="60" as="geometry">
            <mxRectangle width="142" height="60" as="alternateBounds" />
          </mxGeometry>
        </mxCell>
        <mxCell id="CV0nj1p-MBl6-TNDZYEt-134" value="&lt;font style=&quot;font-size: 10px;&quot;&gt;Memory_speed&lt;/font&gt;&lt;font style=&quot;font-size: 10px;&quot;&gt;_range&lt;/font&gt;" style="shape=partialRectangle;html=1;whiteSpace=wrap;connectable=0;strokeColor=inherit;overflow=hidden;fillColor=none;top=0;left=0;bottom=0;right=0;pointerEvents=1;fontSize=16;labelBackgroundColor=default;" parent="CV0nj1p-MBl6-TNDZYEt-121" vertex="1">
          <mxGeometry x="568" width="141" height="60" as="geometry">
            <mxRectangle width="141" height="60" as="alternateBounds" />
          </mxGeometry>
        </mxCell>
        <mxCell id="CV0nj1p-MBl6-TNDZYEt-135" value="&lt;font style=&quot;font-size: 10px;&quot;&gt;Number_of_memory_&lt;font style=&quot;font-size: 10px;&quot;&gt;slots&lt;/font&gt;&lt;/font&gt;" style="shape=partialRectangle;html=1;whiteSpace=wrap;connectable=0;strokeColor=inherit;overflow=hidden;fillColor=none;top=0;left=0;bottom=0;right=0;pointerEvents=1;fontSize=16;labelBackgroundColor=default;" parent="CV0nj1p-MBl6-TNDZYEt-121" vertex="1">
          <mxGeometry x="709" width="142" height="60" as="geometry">
            <mxRectangle width="142" height="60" as="alternateBounds" />
          </mxGeometry>
        </mxCell>
        <mxCell id="CV0nj1p-MBl6-TNDZYEt-136" value="&lt;span style=&quot;&quot;&gt;Chipset&lt;/span&gt;" style="shape=partialRectangle;html=1;whiteSpace=wrap;connectable=0;strokeColor=inherit;overflow=hidden;fillColor=none;top=0;left=0;bottom=0;right=0;pointerEvents=1;fontSize=16;labelBackgroundColor=default;" parent="CV0nj1p-MBl6-TNDZYEt-121" vertex="1">
          <mxGeometry x="851" width="142" height="60" as="geometry">
            <mxRectangle width="142" height="60" as="alternateBounds" />
          </mxGeometry>
        </mxCell>
        <mxCell id="CV0nj1p-MBl6-TNDZYEt-137" value="&lt;span style=&quot;&quot;&gt;Wattage&lt;/span&gt;" style="shape=partialRectangle;html=1;whiteSpace=wrap;connectable=0;strokeColor=inherit;overflow=hidden;fillColor=none;top=0;left=0;bottom=0;right=0;pointerEvents=1;fontSize=16;labelBackgroundColor=default;" parent="CV0nj1p-MBl6-TNDZYEt-121" vertex="1">
          <mxGeometry x="993" width="142" height="60" as="geometry">
            <mxRectangle width="142" height="60" as="alternateBounds" />
          </mxGeometry>
        </mxCell>
        <mxCell id="CV0nj1p-MBl6-TNDZYEt-138" value="&lt;span style=&quot;background-color: rgb(153, 193, 241);&quot;&gt;GPU&lt;/span&gt;" style="text;html=1;align=center;verticalAlign=middle;resizable=0;points=[];autosize=1;strokeColor=none;fillColor=none;fontSize=32;" parent="1" vertex="1">
          <mxGeometry x="70" y="2390" width="90" height="50" as="geometry" />
        </mxCell>
        <mxCell id="CV0nj1p-MBl6-TNDZYEt-139" value="" style="shape=table;startSize=0;container=1;collapsible=0;childLayout=tableLayout;fontSize=16;" parent="1" vertex="1">
          <mxGeometry x="81" y="2490" width="1142" height="60" as="geometry" />
        </mxCell>
        <mxCell id="CV0nj1p-MBl6-TNDZYEt-140" value="" style="shape=tableRow;horizontal=0;startSize=0;swimlaneHead=0;swimlaneBody=0;strokeColor=inherit;top=0;left=0;bottom=0;right=0;collapsible=0;dropTarget=0;fillColor=none;points=[[0,0.5],[1,0.5]];portConstraint=eastwest;fontSize=16;" parent="CV0nj1p-MBl6-TNDZYEt-139" vertex="1">
          <mxGeometry width="1142" height="60" as="geometry" />
        </mxCell>
        <mxCell id="CV0nj1p-MBl6-TNDZYEt-141" value="&lt;u&gt;F_ID&lt;/u&gt;" style="shape=partialRectangle;html=1;whiteSpace=wrap;connectable=0;strokeColor=inherit;overflow=hidden;fillColor=none;top=0;left=0;bottom=0;right=0;pointerEvents=1;fontSize=16;" parent="CV0nj1p-MBl6-TNDZYEt-140" vertex="1">
          <mxGeometry width="143" height="60" as="geometry">
            <mxRectangle width="143" height="60" as="alternateBounds" />
          </mxGeometry>
        </mxCell>
        <mxCell id="CV0nj1p-MBl6-TNDZYEt-142" value="&lt;span style=&quot;&quot;&gt;RAM_size&lt;/span&gt;" style="shape=partialRectangle;html=1;whiteSpace=wrap;connectable=0;strokeColor=inherit;overflow=hidden;fillColor=none;top=0;left=0;bottom=0;right=0;pointerEvents=1;fontSize=16;labelBackgroundColor=default;" parent="CV0nj1p-MBl6-TNDZYEt-140" vertex="1">
          <mxGeometry x="143" width="142" height="60" as="geometry">
            <mxRectangle width="142" height="60" as="alternateBounds" />
          </mxGeometry>
        </mxCell>
        <mxCell id="CV0nj1p-MBl6-TNDZYEt-143" value="&lt;span style=&quot;&quot;&gt;Clock_speed&lt;/span&gt;" style="shape=partialRectangle;html=1;whiteSpace=wrap;connectable=0;strokeColor=inherit;overflow=hidden;fillColor=none;top=0;left=0;bottom=0;right=0;pointerEvents=1;fontSize=16;labelBackgroundColor=default;" parent="CV0nj1p-MBl6-TNDZYEt-140" vertex="1">
          <mxGeometry x="285" width="143" height="60" as="geometry">
            <mxRectangle width="143" height="60" as="alternateBounds" />
          </mxGeometry>
        </mxCell>
        <mxCell id="CV0nj1p-MBl6-TNDZYEt-152" value="&lt;span style=&quot;&quot;&gt;Number_of_fans&lt;/span&gt;" style="shape=partialRectangle;html=1;whiteSpace=wrap;connectable=0;strokeColor=inherit;overflow=hidden;fillColor=none;top=0;left=0;bottom=0;right=0;pointerEvents=1;fontSize=16;labelBackgroundColor=default;" parent="CV0nj1p-MBl6-TNDZYEt-140" vertex="1">
          <mxGeometry x="428" width="143" height="60" as="geometry">
            <mxRectangle width="143" height="60" as="alternateBounds" />
          </mxGeometry>
        </mxCell>
        <mxCell id="CV0nj1p-MBl6-TNDZYEt-153" value="&lt;span style=&quot;&quot;&gt;Width&lt;br&gt;&lt;/span&gt;" style="shape=partialRectangle;html=1;whiteSpace=wrap;connectable=0;strokeColor=inherit;overflow=hidden;fillColor=none;top=0;left=0;bottom=0;right=0;pointerEvents=1;fontSize=16;labelBackgroundColor=default;" parent="CV0nj1p-MBl6-TNDZYEt-140" vertex="1">
          <mxGeometry x="571" width="142" height="60" as="geometry">
            <mxRectangle width="142" height="60" as="alternateBounds" />
          </mxGeometry>
        </mxCell>
        <mxCell id="CV0nj1p-MBl6-TNDZYEt-154" value="&lt;span style=&quot;&quot;&gt;Height&lt;br&gt;&lt;/span&gt;" style="shape=partialRectangle;html=1;whiteSpace=wrap;connectable=0;strokeColor=inherit;overflow=hidden;fillColor=none;top=0;left=0;bottom=0;right=0;pointerEvents=1;fontSize=16;labelBackgroundColor=default;" parent="CV0nj1p-MBl6-TNDZYEt-140" vertex="1">
          <mxGeometry x="713" width="143" height="60" as="geometry">
            <mxRectangle width="143" height="60" as="alternateBounds" />
          </mxGeometry>
        </mxCell>
        <mxCell id="CV0nj1p-MBl6-TNDZYEt-155" value="&lt;span style=&quot;&quot;&gt;Depth&lt;br&gt;&lt;/span&gt;" style="shape=partialRectangle;html=1;whiteSpace=wrap;connectable=0;strokeColor=inherit;overflow=hidden;fillColor=none;top=0;left=0;bottom=0;right=0;pointerEvents=1;fontSize=16;labelBackgroundColor=default;" parent="CV0nj1p-MBl6-TNDZYEt-140" vertex="1">
          <mxGeometry x="856" width="143" height="60" as="geometry">
            <mxRectangle width="143" height="60" as="alternateBounds" />
          </mxGeometry>
        </mxCell>
        <mxCell id="CV0nj1p-MBl6-TNDZYEt-156" value="&lt;span style=&quot;&quot;&gt;Wattage&lt;/span&gt;" style="shape=partialRectangle;html=1;whiteSpace=wrap;connectable=0;strokeColor=inherit;overflow=hidden;fillColor=none;top=0;left=0;bottom=0;right=0;pointerEvents=1;fontSize=16;labelBackgroundColor=default;" parent="CV0nj1p-MBl6-TNDZYEt-140" vertex="1">
          <mxGeometry x="999" width="143" height="60" as="geometry">
            <mxRectangle width="143" height="60" as="alternateBounds" />
          </mxGeometry>
        </mxCell>
        <mxCell id="m6St6NsRdLUoVX5ji24v-1" value="&lt;font style=&quot;font-size: 32px; background-color: rgb(153, 193, 241);&quot;&gt;POWER_SUPPLY&lt;/font&gt;" style="text;html=1;align=center;verticalAlign=middle;resizable=0;points=[];autosize=1;strokeColor=none;fillColor=none;" parent="1" vertex="1">
          <mxGeometry x="70" y="2640" width="280" height="50" as="geometry" />
        </mxCell>
        <mxCell id="m6St6NsRdLUoVX5ji24v-2" value="" style="shape=table;startSize=0;container=1;collapsible=0;childLayout=tableLayout;fontSize=16;" parent="1" vertex="1">
          <mxGeometry x="82" y="2740" width="873" height="60" as="geometry" />
        </mxCell>
        <mxCell id="m6St6NsRdLUoVX5ji24v-3" value="" style="shape=tableRow;horizontal=0;startSize=0;swimlaneHead=0;swimlaneBody=0;strokeColor=inherit;top=0;left=0;bottom=0;right=0;collapsible=0;dropTarget=0;fillColor=none;points=[[0,0.5],[1,0.5]];portConstraint=eastwest;fontSize=16;" parent="m6St6NsRdLUoVX5ji24v-2" vertex="1">
          <mxGeometry width="873" height="60" as="geometry" />
        </mxCell>
        <mxCell id="m6St6NsRdLUoVX5ji24v-4" value="&lt;u&gt;F_ID&lt;/u&gt;" style="shape=partialRectangle;html=1;whiteSpace=wrap;connectable=0;strokeColor=inherit;overflow=hidden;fillColor=none;top=0;left=0;bottom=0;right=0;pointerEvents=1;fontSize=16;" parent="m6St6NsRdLUoVX5ji24v-3" vertex="1">
          <mxGeometry width="175" height="60" as="geometry">
            <mxRectangle width="175" height="60" as="alternateBounds" />
          </mxGeometry>
        </mxCell>
        <mxCell id="m6St6NsRdLUoVX5ji24v-5" value="&lt;span style=&quot;&quot;&gt;Width&lt;br&gt;&lt;/span&gt;" style="shape=partialRectangle;html=1;whiteSpace=wrap;connectable=0;strokeColor=inherit;overflow=hidden;fillColor=none;top=0;left=0;bottom=0;right=0;pointerEvents=1;fontSize=16;labelBackgroundColor=default;" parent="m6St6NsRdLUoVX5ji24v-3" vertex="1">
          <mxGeometry x="175" width="174" height="60" as="geometry">
            <mxRectangle width="174" height="60" as="alternateBounds" />
          </mxGeometry>
        </mxCell>
        <mxCell id="m6St6NsRdLUoVX5ji24v-6" value="&lt;span style=&quot;&quot;&gt;Depth&lt;br&gt;&lt;/span&gt;" style="shape=partialRectangle;html=1;whiteSpace=wrap;connectable=0;strokeColor=inherit;overflow=hidden;fillColor=none;top=0;left=0;bottom=0;right=0;pointerEvents=1;fontSize=16;labelBackgroundColor=default;" parent="m6St6NsRdLUoVX5ji24v-3" vertex="1">
          <mxGeometry x="349" width="175" height="60" as="geometry">
            <mxRectangle width="175" height="60" as="alternateBounds" />
          </mxGeometry>
        </mxCell>
        <mxCell id="m6St6NsRdLUoVX5ji24v-15" value="&lt;span style=&quot;&quot;&gt;Height&lt;br&gt;&lt;/span&gt;" style="shape=partialRectangle;html=1;whiteSpace=wrap;connectable=0;strokeColor=inherit;overflow=hidden;fillColor=none;top=0;left=0;bottom=0;right=0;pointerEvents=1;fontSize=16;labelBackgroundColor=default;" parent="m6St6NsRdLUoVX5ji24v-3" vertex="1">
          <mxGeometry x="524" width="175" height="60" as="geometry">
            <mxRectangle width="175" height="60" as="alternateBounds" />
          </mxGeometry>
        </mxCell>
        <mxCell id="m6St6NsRdLUoVX5ji24v-16" value="&lt;font style=&quot;font-size: 10px;&quot;&gt;Supported_wattage&lt;/font&gt;" style="shape=partialRectangle;html=1;whiteSpace=wrap;connectable=0;strokeColor=inherit;overflow=hidden;fillColor=none;top=0;left=0;bottom=0;right=0;pointerEvents=1;fontSize=16;labelBackgroundColor=default;" parent="m6St6NsRdLUoVX5ji24v-3" vertex="1">
          <mxGeometry x="699" width="174" height="60" as="geometry">
            <mxRectangle width="174" height="60" as="alternateBounds" />
          </mxGeometry>
        </mxCell>
        <mxCell id="m6St6NsRdLUoVX5ji24v-18" value="&lt;font style=&quot;font-size: 32px; background-color: rgb(153, 193, 241);&quot;&gt;CPU&lt;/font&gt;" style="text;html=1;align=center;verticalAlign=middle;resizable=0;points=[];autosize=1;strokeColor=none;fillColor=none;" parent="1" vertex="1">
          <mxGeometry x="82" y="2890" width="90" height="50" as="geometry" />
        </mxCell>
        <mxCell id="m6St6NsRdLUoVX5ji24v-19" value="" style="shape=table;startSize=0;container=1;collapsible=0;childLayout=tableLayout;fontSize=16;labelBackgroundColor=default;" parent="1" vertex="1">
          <mxGeometry x="90" y="3000" width="1530" height="70" as="geometry" />
        </mxCell>
        <mxCell id="m6St6NsRdLUoVX5ji24v-20" value="" style="shape=tableRow;horizontal=0;startSize=0;swimlaneHead=0;swimlaneBody=0;strokeColor=inherit;top=0;left=0;bottom=0;right=0;collapsible=0;dropTarget=0;fillColor=none;points=[[0,0.5],[1,0.5]];portConstraint=eastwest;fontSize=16;" parent="m6St6NsRdLUoVX5ji24v-19" vertex="1">
          <mxGeometry width="1530" height="70" as="geometry" />
        </mxCell>
        <mxCell id="m6St6NsRdLUoVX5ji24v-21" value="&lt;u&gt;F_ID&lt;/u&gt;" style="shape=partialRectangle;html=1;whiteSpace=wrap;connectable=0;strokeColor=inherit;overflow=hidden;fillColor=none;top=0;left=0;bottom=0;right=0;pointerEvents=1;fontSize=16;" parent="m6St6NsRdLUoVX5ji24v-20" vertex="1">
          <mxGeometry width="163" height="70" as="geometry">
            <mxRectangle width="163" height="70" as="alternateBounds" />
          </mxGeometry>
        </mxCell>
        <mxCell id="m6St6NsRdLUoVX5ji24v-22" value="&lt;span style=&quot;&quot;&gt;Boost_frequency&lt;/span&gt;" style="shape=partialRectangle;html=1;whiteSpace=wrap;connectable=0;strokeColor=inherit;overflow=hidden;fillColor=none;top=0;left=0;bottom=0;right=0;pointerEvents=1;fontSize=16;labelBackgroundColor=default;" parent="m6St6NsRdLUoVX5ji24v-20" vertex="1">
          <mxGeometry x="163" width="164" height="70" as="geometry">
            <mxRectangle width="164" height="70" as="alternateBounds" />
          </mxGeometry>
        </mxCell>
        <mxCell id="m6St6NsRdLUoVX5ji24v-23" value="&lt;span style=&quot;&quot;&gt;Wattage&lt;/span&gt;" style="shape=partialRectangle;html=1;whiteSpace=wrap;connectable=0;strokeColor=inherit;overflow=hidden;fillColor=none;top=0;left=0;bottom=0;right=0;pointerEvents=1;fontSize=16;labelBackgroundColor=default;" parent="m6St6NsRdLUoVX5ji24v-20" vertex="1">
          <mxGeometry x="327" width="163" height="70" as="geometry">
            <mxRectangle width="163" height="70" as="alternateBounds" />
          </mxGeometry>
        </mxCell>
        <mxCell id="m6St6NsRdLUoVX5ji24v-32" value="&lt;font style=&quot;font-size: 12px;&quot;&gt;Generation&lt;/font&gt;" style="shape=partialRectangle;html=1;whiteSpace=wrap;connectable=0;strokeColor=inherit;overflow=hidden;fillColor=none;top=0;left=0;bottom=0;right=0;pointerEvents=1;fontSize=16;labelBackgroundColor=default;" parent="m6St6NsRdLUoVX5ji24v-20" vertex="1">
          <mxGeometry x="490" width="163" height="70" as="geometry">
            <mxRectangle width="163" height="70" as="alternateBounds" />
          </mxGeometry>
        </mxCell>
        <mxCell id="m6St6NsRdLUoVX5ji24v-33" value="&lt;span style=&quot;&quot;&gt;Microarchitecture&lt;/span&gt;" style="shape=partialRectangle;html=1;whiteSpace=wrap;connectable=0;strokeColor=inherit;overflow=hidden;fillColor=none;top=0;left=0;bottom=0;right=0;pointerEvents=1;fontSize=16;labelBackgroundColor=default;" parent="m6St6NsRdLUoVX5ji24v-20" vertex="1">
          <mxGeometry x="653" width="165" height="70" as="geometry">
            <mxRectangle width="165" height="70" as="alternateBounds" />
          </mxGeometry>
        </mxCell>
        <mxCell id="m6St6NsRdLUoVX5ji24v-34" value="&lt;span style=&quot;&quot;&gt;Base_frequency&lt;/span&gt;" style="shape=partialRectangle;html=1;whiteSpace=wrap;connectable=0;strokeColor=inherit;overflow=hidden;fillColor=none;top=0;left=0;bottom=0;right=0;pointerEvents=1;fontSize=16;labelBackgroundColor=default;" parent="m6St6NsRdLUoVX5ji24v-20" vertex="1">
          <mxGeometry x="818" width="163" height="70" as="geometry">
            <mxRectangle width="163" height="70" as="alternateBounds" />
          </mxGeometry>
        </mxCell>
        <mxCell id="m6St6NsRdLUoVX5ji24v-35" value="&lt;font style=&quot;font-size: 12px;&quot;&gt;Number_of_cores&lt;/font&gt;" style="shape=partialRectangle;html=1;whiteSpace=wrap;connectable=0;strokeColor=inherit;overflow=hidden;fillColor=none;top=0;left=0;bottom=0;right=0;pointerEvents=1;fontSize=16;labelBackgroundColor=default;" parent="m6St6NsRdLUoVX5ji24v-20" vertex="1">
          <mxGeometry x="981" width="163" height="70" as="geometry">
            <mxRectangle width="163" height="70" as="alternateBounds" />
          </mxGeometry>
        </mxCell>
        <mxCell id="m6St6NsRdLUoVX5ji24v-36" value="&lt;font style=&quot;font-size: 12px;&quot;&gt;Number_of_threads&lt;/font&gt;" style="shape=partialRectangle;html=1;whiteSpace=wrap;connectable=0;strokeColor=inherit;overflow=hidden;fillColor=none;top=0;left=0;bottom=0;right=0;pointerEvents=1;fontSize=16;labelBackgroundColor=default;" parent="m6St6NsRdLUoVX5ji24v-20" vertex="1">
          <mxGeometry x="1144" width="163" height="70" as="geometry">
            <mxRectangle width="163" height="70" as="alternateBounds" />
          </mxGeometry>
        </mxCell>
        <mxCell id="m6St6NsRdLUoVX5ji24v-37" value="&lt;font style=&quot;font-size: 10px;&quot;&gt;Maximum_addressable_memory_limit&lt;/font&gt;" style="shape=partialRectangle;html=1;whiteSpace=wrap;connectable=0;strokeColor=inherit;overflow=hidden;fillColor=none;top=0;left=0;bottom=0;right=0;pointerEvents=1;fontSize=16;labelBackgroundColor=default;" parent="m6St6NsRdLUoVX5ji24v-20" vertex="1">
          <mxGeometry x="1307" width="223" height="70" as="geometry">
            <mxRectangle width="223" height="70" as="alternateBounds" />
          </mxGeometry>
        </mxCell>
        <mxCell id="m6St6NsRdLUoVX5ji24v-38" value="&lt;font style=&quot;font-size: 32px; background-color: rgb(153, 193, 241);&quot;&gt;COOLER&lt;/font&gt;" style="text;html=1;align=center;verticalAlign=middle;resizable=0;points=[];autosize=1;strokeColor=none;fillColor=none;" parent="1" vertex="1">
          <mxGeometry x="82" y="3140" width="160" height="50" as="geometry" />
        </mxCell>
        <mxCell id="m6St6NsRdLUoVX5ji24v-39" value="" style="shape=table;startSize=0;container=1;collapsible=0;childLayout=tableLayout;fontSize=16;" parent="1" vertex="1">
          <mxGeometry x="88" y="3210" width="1582" height="80" as="geometry" />
        </mxCell>
        <mxCell id="m6St6NsRdLUoVX5ji24v-40" value="" style="shape=tableRow;horizontal=0;startSize=0;swimlaneHead=0;swimlaneBody=0;strokeColor=inherit;top=0;left=0;bottom=0;right=0;collapsible=0;dropTarget=0;fillColor=none;points=[[0,0.5],[1,0.5]];portConstraint=eastwest;fontSize=16;" parent="m6St6NsRdLUoVX5ji24v-39" vertex="1">
          <mxGeometry width="1582" height="80" as="geometry" />
        </mxCell>
        <mxCell id="m6St6NsRdLUoVX5ji24v-41" value="&lt;u&gt;F_ID&lt;/u&gt;" style="shape=partialRectangle;html=1;whiteSpace=wrap;connectable=0;strokeColor=inherit;overflow=hidden;fillColor=none;top=0;left=0;bottom=0;right=0;pointerEvents=1;fontSize=16;" parent="m6St6NsRdLUoVX5ji24v-40" vertex="1">
          <mxGeometry width="198" height="80" as="geometry">
            <mxRectangle width="198" height="80" as="alternateBounds" />
          </mxGeometry>
        </mxCell>
        <mxCell id="m6St6NsRdLUoVX5ji24v-42" value="&lt;font style=&quot;font-size: 10px;&quot;&gt;Maximum_rotational_speed&lt;/font&gt;" style="shape=partialRectangle;html=1;whiteSpace=wrap;connectable=0;strokeColor=inherit;overflow=hidden;fillColor=none;top=0;left=0;bottom=0;right=0;pointerEvents=1;fontSize=16;labelBackgroundColor=default;" parent="m6St6NsRdLUoVX5ji24v-40" vertex="1">
          <mxGeometry x="198" width="198" height="80" as="geometry">
            <mxRectangle width="198" height="80" as="alternateBounds" />
          </mxGeometry>
        </mxCell>
        <mxCell id="m6St6NsRdLUoVX5ji24v-43" value="&lt;span style=&quot;&quot;&gt;Cooling_method&lt;/span&gt;" style="shape=partialRectangle;html=1;whiteSpace=wrap;connectable=0;strokeColor=inherit;overflow=hidden;fillColor=none;top=0;left=0;bottom=0;right=0;pointerEvents=1;fontSize=16;labelBackgroundColor=default;" parent="m6St6NsRdLUoVX5ji24v-40" vertex="1">
          <mxGeometry x="396" width="197" height="80" as="geometry">
            <mxRectangle width="197" height="80" as="alternateBounds" />
          </mxGeometry>
        </mxCell>
        <mxCell id="m6St6NsRdLUoVX5ji24v-52" value="&lt;span style=&quot;&quot;&gt;Depth&lt;br&gt;&lt;/span&gt;" style="shape=partialRectangle;html=1;whiteSpace=wrap;connectable=0;strokeColor=inherit;overflow=hidden;fillColor=none;top=0;left=0;bottom=0;right=0;pointerEvents=1;fontSize=16;labelBackgroundColor=default;" parent="m6St6NsRdLUoVX5ji24v-40" vertex="1">
          <mxGeometry x="593" width="199" height="80" as="geometry">
            <mxRectangle width="199" height="80" as="alternateBounds" />
          </mxGeometry>
        </mxCell>
        <mxCell id="m6St6NsRdLUoVX5ji24v-53" value="&lt;span style=&quot;&quot;&gt;Height&lt;br&gt;&lt;/span&gt;" style="shape=partialRectangle;html=1;whiteSpace=wrap;connectable=0;strokeColor=inherit;overflow=hidden;fillColor=none;top=0;left=0;bottom=0;right=0;pointerEvents=1;fontSize=16;labelBackgroundColor=default;" parent="m6St6NsRdLUoVX5ji24v-40" vertex="1">
          <mxGeometry x="792" width="197" height="80" as="geometry">
            <mxRectangle width="197" height="80" as="alternateBounds" />
          </mxGeometry>
        </mxCell>
        <mxCell id="m6St6NsRdLUoVX5ji24v-54" value="&lt;span style=&quot;&quot;&gt;Width&lt;br&gt;&lt;/span&gt;" style="shape=partialRectangle;html=1;whiteSpace=wrap;connectable=0;strokeColor=inherit;overflow=hidden;fillColor=none;top=0;left=0;bottom=0;right=0;pointerEvents=1;fontSize=16;labelBackgroundColor=default;" parent="m6St6NsRdLUoVX5ji24v-40" vertex="1">
          <mxGeometry x="989" width="198" height="80" as="geometry">
            <mxRectangle width="198" height="80" as="alternateBounds" />
          </mxGeometry>
        </mxCell>
        <mxCell id="m6St6NsRdLUoVX5ji24v-55" value="&lt;span style=&quot;&quot;&gt;Wattage&lt;/span&gt;" style="shape=partialRectangle;html=1;whiteSpace=wrap;connectable=0;strokeColor=inherit;overflow=hidden;fillColor=none;top=0;left=0;bottom=0;right=0;pointerEvents=1;fontSize=16;labelBackgroundColor=default;" parent="m6St6NsRdLUoVX5ji24v-40" vertex="1">
          <mxGeometry x="1187" width="197" height="80" as="geometry">
            <mxRectangle width="197" height="80" as="alternateBounds" />
          </mxGeometry>
        </mxCell>
        <mxCell id="m6St6NsRdLUoVX5ji24v-56" value="&lt;span style=&quot;&quot;&gt;Fan_size&lt;/span&gt;" style="shape=partialRectangle;html=1;whiteSpace=wrap;connectable=0;strokeColor=inherit;overflow=hidden;fillColor=none;top=0;left=0;bottom=0;right=0;pointerEvents=1;fontSize=16;labelBackgroundColor=default;" parent="m6St6NsRdLUoVX5ji24v-40" vertex="1">
          <mxGeometry x="1384" width="198" height="80" as="geometry">
            <mxRectangle width="198" height="80" as="alternateBounds" />
          </mxGeometry>
        </mxCell>
        <mxCell id="m6St6NsRdLUoVX5ji24v-57" value="&lt;font style=&quot;font-size: 32px; background-color: rgb(153, 193, 241);&quot;&gt;HDD&lt;/font&gt;" style="text;html=1;align=center;verticalAlign=middle;resizable=0;points=[];autosize=1;strokeColor=none;fillColor=none;" parent="1" vertex="1">
          <mxGeometry x="82" y="3350" width="90" height="50" as="geometry" />
        </mxCell>
        <mxCell id="m6St6NsRdLUoVX5ji24v-58" value="" style="shape=table;startSize=0;container=1;collapsible=0;childLayout=tableLayout;fontSize=16;" parent="1" vertex="1">
          <mxGeometry x="90" y="3440" width="1290" height="90" as="geometry" />
        </mxCell>
        <mxCell id="m6St6NsRdLUoVX5ji24v-59" value="" style="shape=tableRow;horizontal=0;startSize=0;swimlaneHead=0;swimlaneBody=0;strokeColor=inherit;top=0;left=0;bottom=0;right=0;collapsible=0;dropTarget=0;fillColor=none;points=[[0,0.5],[1,0.5]];portConstraint=eastwest;fontSize=16;" parent="m6St6NsRdLUoVX5ji24v-58" vertex="1">
          <mxGeometry width="1290" height="90" as="geometry" />
        </mxCell>
        <mxCell id="m6St6NsRdLUoVX5ji24v-60" value="&lt;u&gt;F_ID&lt;/u&gt;" style="shape=partialRectangle;html=1;whiteSpace=wrap;connectable=0;strokeColor=inherit;overflow=hidden;fillColor=none;top=0;left=0;bottom=0;right=0;pointerEvents=1;fontSize=16;" parent="m6St6NsRdLUoVX5ji24v-59" vertex="1">
          <mxGeometry width="184" height="90" as="geometry">
            <mxRectangle width="184" height="90" as="alternateBounds" />
          </mxGeometry>
        </mxCell>
        <mxCell id="m6St6NsRdLUoVX5ji24v-61" value="&lt;span style=&quot;&quot;&gt;Rotational_speed&lt;/span&gt;" style="shape=partialRectangle;html=1;whiteSpace=wrap;connectable=0;strokeColor=inherit;overflow=hidden;fillColor=none;top=0;left=0;bottom=0;right=0;pointerEvents=1;fontSize=16;labelBackgroundColor=default;" parent="m6St6NsRdLUoVX5ji24v-59" vertex="1">
          <mxGeometry x="184" width="185" height="90" as="geometry">
            <mxRectangle width="185" height="90" as="alternateBounds" />
          </mxGeometry>
        </mxCell>
        <mxCell id="m6St6NsRdLUoVX5ji24v-62" value="&lt;font style=&quot;font-size: 17px;&quot;&gt;Wattage&lt;/font&gt;" style="shape=partialRectangle;html=1;whiteSpace=wrap;connectable=0;strokeColor=inherit;overflow=hidden;fillColor=none;top=0;left=0;bottom=0;right=0;pointerEvents=1;fontSize=16;labelBackgroundColor=default;" parent="m6St6NsRdLUoVX5ji24v-59" vertex="1">
          <mxGeometry x="369" width="183" height="90" as="geometry">
            <mxRectangle width="183" height="90" as="alternateBounds" />
          </mxGeometry>
        </mxCell>
        <mxCell id="m6St6NsRdLUoVX5ji24v-71" value="&lt;span style=&quot;&quot;&gt;Capacity&lt;/span&gt;" style="shape=partialRectangle;html=1;whiteSpace=wrap;connectable=0;strokeColor=inherit;overflow=hidden;fillColor=none;top=0;left=0;bottom=0;right=0;pointerEvents=1;fontSize=16;labelBackgroundColor=default;" parent="m6St6NsRdLUoVX5ji24v-59" vertex="1">
          <mxGeometry x="552" width="186" height="90" as="geometry">
            <mxRectangle width="186" height="90" as="alternateBounds" />
          </mxGeometry>
        </mxCell>
        <mxCell id="m6St6NsRdLUoVX5ji24v-72" value="&lt;span style=&quot;&quot;&gt;Width&lt;br&gt;&lt;/span&gt;" style="shape=partialRectangle;html=1;whiteSpace=wrap;connectable=0;strokeColor=inherit;overflow=hidden;fillColor=none;top=0;left=0;bottom=0;right=0;pointerEvents=1;fontSize=16;labelBackgroundColor=default;" parent="m6St6NsRdLUoVX5ji24v-59" vertex="1">
          <mxGeometry x="738" width="184" height="90" as="geometry">
            <mxRectangle width="184" height="90" as="alternateBounds" />
          </mxGeometry>
        </mxCell>
        <mxCell id="m6St6NsRdLUoVX5ji24v-73" value="&lt;span style=&quot;&quot;&gt;Height&lt;br&gt;&lt;/span&gt;" style="shape=partialRectangle;html=1;whiteSpace=wrap;connectable=0;strokeColor=inherit;overflow=hidden;fillColor=none;top=0;left=0;bottom=0;right=0;pointerEvents=1;fontSize=16;labelBackgroundColor=default;" parent="m6St6NsRdLUoVX5ji24v-59" vertex="1">
          <mxGeometry x="922" width="185" height="90" as="geometry">
            <mxRectangle width="185" height="90" as="alternateBounds" />
          </mxGeometry>
        </mxCell>
        <mxCell id="m6St6NsRdLUoVX5ji24v-74" value="&lt;span style=&quot;&quot;&gt;Depth&lt;br&gt;&lt;/span&gt;" style="shape=partialRectangle;html=1;whiteSpace=wrap;connectable=0;strokeColor=inherit;overflow=hidden;fillColor=none;top=0;left=0;bottom=0;right=0;pointerEvents=1;fontSize=16;labelBackgroundColor=default;" parent="m6St6NsRdLUoVX5ji24v-59" vertex="1">
          <mxGeometry x="1107" width="183" height="90" as="geometry">
            <mxRectangle width="183" height="90" as="alternateBounds" />
          </mxGeometry>
        </mxCell>
        <mxCell id="m6St6NsRdLUoVX5ji24v-76" value="&lt;font style=&quot;font-size: 32px; background-color: rgb(153, 193, 241);&quot;&gt;PRODUCT&lt;/font&gt;" style="text;html=1;align=center;verticalAlign=middle;resizable=0;points=[];autosize=1;strokeColor=none;fillColor=none;" parent="1" vertex="1">
          <mxGeometry x="60" y="1140" width="180" height="50" as="geometry" />
        </mxCell>
        <mxCell id="m6St6NsRdLUoVX5ji24v-77" value="" style="shape=table;startSize=0;container=1;collapsible=0;childLayout=tableLayout;fontSize=16;" parent="1" vertex="1">
          <mxGeometry x="72" y="1240" width="1318" height="80" as="geometry" />
        </mxCell>
        <mxCell id="m6St6NsRdLUoVX5ji24v-78" value="" style="shape=tableRow;horizontal=0;startSize=0;swimlaneHead=0;swimlaneBody=0;strokeColor=inherit;top=0;left=0;bottom=0;right=0;collapsible=0;dropTarget=0;fillColor=none;points=[[0,0.5],[1,0.5]];portConstraint=eastwest;fontSize=16;" parent="m6St6NsRdLUoVX5ji24v-77" vertex="1">
          <mxGeometry width="1318" height="80" as="geometry" />
        </mxCell>
        <mxCell id="m6St6NsRdLUoVX5ji24v-79" value="&lt;font style=&quot;font-size: 26px;&quot;&gt;&lt;u&gt;ID&lt;/u&gt;&lt;/font&gt;" style="shape=partialRectangle;html=1;whiteSpace=wrap;connectable=0;strokeColor=inherit;overflow=hidden;fillColor=none;top=0;left=0;bottom=0;right=0;pointerEvents=1;fontSize=16;" parent="m6St6NsRdLUoVX5ji24v-78" vertex="1">
          <mxGeometry width="188" height="80" as="geometry">
            <mxRectangle width="188" height="80" as="alternateBounds" />
          </mxGeometry>
        </mxCell>
        <mxCell id="m6St6NsRdLUoVX5ji24v-80" value="&lt;span style=&quot;background-color: rgb(255, 255, 255);&quot;&gt;Brand&lt;/span&gt;" style="shape=partialRectangle;html=1;whiteSpace=wrap;connectable=0;strokeColor=inherit;overflow=hidden;fillColor=none;top=0;left=0;bottom=0;right=0;pointerEvents=1;fontSize=16;" parent="m6St6NsRdLUoVX5ji24v-78" vertex="1">
          <mxGeometry x="188" width="189" height="80" as="geometry">
            <mxRectangle width="189" height="80" as="alternateBounds" />
          </mxGeometry>
        </mxCell>
        <mxCell id="m6St6NsRdLUoVX5ji24v-81" value="&lt;span style=&quot;background-color: rgb(255, 255, 255);&quot;&gt;Model&lt;/span&gt;" style="shape=partialRectangle;html=1;whiteSpace=wrap;connectable=0;strokeColor=inherit;overflow=hidden;fillColor=none;top=0;left=0;bottom=0;right=0;pointerEvents=1;fontSize=16;" parent="m6St6NsRdLUoVX5ji24v-78" vertex="1">
          <mxGeometry x="377" width="188" height="80" as="geometry">
            <mxRectangle width="188" height="80" as="alternateBounds" />
          </mxGeometry>
        </mxCell>
        <mxCell id="m6St6NsRdLUoVX5ji24v-90" value="&lt;span style=&quot;background-color: rgb(255, 255, 255);&quot;&gt;Stock_count&lt;/span&gt;" style="shape=partialRectangle;html=1;whiteSpace=wrap;connectable=0;strokeColor=inherit;overflow=hidden;fillColor=none;top=0;left=0;bottom=0;right=0;pointerEvents=1;fontSize=16;" parent="m6St6NsRdLUoVX5ji24v-78" vertex="1">
          <mxGeometry x="565" width="188" height="80" as="geometry">
            <mxRectangle width="188" height="80" as="alternateBounds" />
          </mxGeometry>
        </mxCell>
        <mxCell id="m6St6NsRdLUoVX5ji24v-91" value="&lt;span style=&quot;background-color: rgb(255, 255, 255);&quot;&gt;Current_price&lt;/span&gt;" style="shape=partialRectangle;html=1;whiteSpace=wrap;connectable=0;strokeColor=inherit;overflow=hidden;fillColor=none;top=0;left=0;bottom=0;right=0;pointerEvents=1;fontSize=16;" parent="m6St6NsRdLUoVX5ji24v-78" vertex="1">
          <mxGeometry x="753" width="188" height="80" as="geometry">
            <mxRectangle width="188" height="80" as="alternateBounds" />
          </mxGeometry>
        </mxCell>
        <mxCell id="m6St6NsRdLUoVX5ji24v-92" value="&lt;span style=&quot;background-color: rgb(255, 255, 255);&quot;&gt;Image&lt;/span&gt;" style="shape=partialRectangle;html=1;whiteSpace=wrap;connectable=0;strokeColor=inherit;overflow=hidden;fillColor=none;top=0;left=0;bottom=0;right=0;pointerEvents=1;fontSize=16;" parent="m6St6NsRdLUoVX5ji24v-78" vertex="1">
          <mxGeometry x="941" width="189" height="80" as="geometry">
            <mxRectangle width="189" height="80" as="alternateBounds" />
          </mxGeometry>
        </mxCell>
        <mxCell id="m6St6NsRdLUoVX5ji24v-93" value="&lt;span style=&quot;background-color: rgb(255, 255, 255);&quot;&gt;Category&lt;/span&gt;" style="shape=partialRectangle;html=1;whiteSpace=wrap;connectable=0;strokeColor=inherit;overflow=hidden;fillColor=none;top=0;left=0;bottom=0;right=0;pointerEvents=1;fontSize=16;" parent="m6St6NsRdLUoVX5ji24v-78" vertex="1">
          <mxGeometry x="1130" width="188" height="80" as="geometry">
            <mxRectangle width="188" height="80" as="alternateBounds" />
          </mxGeometry>
        </mxCell>
        <mxCell id="m6St6NsRdLUoVX5ji24v-94" value="&lt;font style=&quot;font-size: 32px; background-color: rgb(153, 193, 241);&quot;&gt;VIP_CLIENT&lt;/font&gt;" style="text;html=1;align=center;verticalAlign=middle;resizable=0;points=[];autosize=1;strokeColor=none;fillColor=none;" parent="1" vertex="1">
          <mxGeometry x="2020" y="-190" width="210" height="50" as="geometry" />
        </mxCell>
        <mxCell id="m6St6NsRdLUoVX5ji24v-95" value="" style="shape=table;startSize=0;container=1;collapsible=0;childLayout=tableLayout;fontSize=16;" parent="1" vertex="1">
          <mxGeometry x="2040" y="-100" width="430" height="80" as="geometry" />
        </mxCell>
        <mxCell id="m6St6NsRdLUoVX5ji24v-96" value="" style="shape=tableRow;horizontal=0;startSize=0;swimlaneHead=0;swimlaneBody=0;strokeColor=inherit;top=0;left=0;bottom=0;right=0;collapsible=0;dropTarget=0;fillColor=none;points=[[0,0.5],[1,0.5]];portConstraint=eastwest;fontSize=16;" parent="m6St6NsRdLUoVX5ji24v-95" vertex="1">
          <mxGeometry width="430" height="80" as="geometry" />
        </mxCell>
        <mxCell id="m6St6NsRdLUoVX5ji24v-97" value="&lt;u&gt;V_ID &lt;br&gt;&lt;/u&gt;" style="shape=partialRectangle;html=1;whiteSpace=wrap;connectable=0;strokeColor=inherit;overflow=hidden;fillColor=none;top=0;left=0;bottom=0;right=0;pointerEvents=1;fontSize=16;" parent="m6St6NsRdLUoVX5ji24v-96" vertex="1">
          <mxGeometry width="191" height="80" as="geometry">
            <mxRectangle width="191" height="80" as="alternateBounds" />
          </mxGeometry>
        </mxCell>
        <mxCell id="m6St6NsRdLUoVX5ji24v-98" value="Subscription_expiration_time" style="shape=partialRectangle;html=1;whiteSpace=wrap;connectable=0;strokeColor=inherit;overflow=hidden;fillColor=none;top=0;left=0;bottom=0;right=0;pointerEvents=1;fontSize=16;" parent="m6St6NsRdLUoVX5ji24v-96" vertex="1">
          <mxGeometry x="191" width="239" height="80" as="geometry">
            <mxRectangle width="239" height="80" as="alternateBounds" />
          </mxGeometry>
        </mxCell>
        <mxCell id="m6St6NsRdLUoVX5ji24v-108" value="&lt;span style=&quot;background-color: rgb(153, 193, 241);&quot;&gt;SHOPPING_CART&lt;/span&gt;" style="text;html=1;align=center;verticalAlign=middle;resizable=0;points=[];autosize=1;strokeColor=none;fillColor=none;fontSize=32;" parent="1" vertex="1">
          <mxGeometry x="60" y="425" width="290" height="50" as="geometry" />
        </mxCell>
        <mxCell id="m6St6NsRdLUoVX5ji24v-109" value="" style="shape=table;startSize=0;container=1;collapsible=0;childLayout=tableLayout;fontSize=16;" parent="1" vertex="1">
          <mxGeometry x="85" y="515" width="850" height="80" as="geometry" />
        </mxCell>
        <mxCell id="m6St6NsRdLUoVX5ji24v-110" value="" style="shape=tableRow;horizontal=0;startSize=0;swimlaneHead=0;swimlaneBody=0;strokeColor=inherit;top=0;left=0;bottom=0;right=0;collapsible=0;dropTarget=0;fillColor=none;points=[[0,0.5],[1,0.5]];portConstraint=eastwest;fontSize=16;" parent="m6St6NsRdLUoVX5ji24v-109" vertex="1">
          <mxGeometry width="850" height="80" as="geometry" />
        </mxCell>
        <mxCell id="m6St6NsRdLUoVX5ji24v-111" value="&lt;u&gt;FC_ID&lt;/u&gt;" style="shape=partialRectangle;html=1;whiteSpace=wrap;connectable=0;strokeColor=inherit;overflow=hidden;fillColor=none;top=0;left=0;bottom=0;right=0;pointerEvents=1;fontSize=16;" parent="m6St6NsRdLUoVX5ji24v-110" vertex="1">
          <mxGeometry width="284" height="80" as="geometry">
            <mxRectangle width="284" height="80" as="alternateBounds" />
          </mxGeometry>
        </mxCell>
        <mxCell id="m6St6NsRdLUoVX5ji24v-122" value="&lt;u&gt;Number&lt;/u&gt;" style="shape=partialRectangle;html=1;whiteSpace=wrap;connectable=0;strokeColor=inherit;overflow=hidden;fillColor=none;top=0;left=0;bottom=0;right=0;pointerEvents=1;fontSize=16;" parent="m6St6NsRdLUoVX5ji24v-110" vertex="1">
          <mxGeometry x="284" width="282" height="80" as="geometry">
            <mxRectangle width="282" height="80" as="alternateBounds" />
          </mxGeometry>
        </mxCell>
        <mxCell id="m6St6NsRdLUoVX5ji24v-123" value="&lt;span style=&quot;background-color: rgb(255, 255, 255);&quot;&gt;Status&lt;/span&gt;" style="shape=partialRectangle;html=1;whiteSpace=wrap;connectable=0;strokeColor=inherit;overflow=hidden;fillColor=none;top=0;left=0;bottom=0;right=0;pointerEvents=1;fontSize=16;" parent="m6St6NsRdLUoVX5ji24v-110" vertex="1">
          <mxGeometry x="566" width="284" height="80" as="geometry">
            <mxRectangle width="284" height="80" as="alternateBounds" />
          </mxGeometry>
        </mxCell>
        <mxCell id="m6St6NsRdLUoVX5ji24v-129" value="&lt;div&gt;&lt;font style=&quot;font-size: 32px; background-color: rgb(153, 193, 241);&quot;&gt;LOCKED_SHOPPING_CART&lt;/font&gt;&lt;/div&gt;&lt;div&gt;&lt;span style=&quot;background-color: rgb(153, 193, 241);&quot;&gt;&lt;br&gt;&lt;/span&gt;&lt;/div&gt;" style="text;html=1;align=center;verticalAlign=middle;resizable=0;points=[];autosize=1;strokeColor=none;fillColor=none;" parent="1" vertex="1">
          <mxGeometry x="70" y="670" width="440" height="70" as="geometry" />
        </mxCell>
        <mxCell id="m6St6NsRdLUoVX5ji24v-130" value="" style="shape=table;startSize=0;container=1;collapsible=0;childLayout=tableLayout;fontSize=16;" parent="1" vertex="1">
          <mxGeometry x="70" y="760" width="1155" height="90" as="geometry" />
        </mxCell>
        <mxCell id="m6St6NsRdLUoVX5ji24v-131" value="" style="shape=tableRow;horizontal=0;startSize=0;swimlaneHead=0;swimlaneBody=0;strokeColor=inherit;top=0;left=0;bottom=0;right=0;collapsible=0;dropTarget=0;fillColor=none;points=[[0,0.5],[1,0.5]];portConstraint=eastwest;fontSize=16;" parent="m6St6NsRdLUoVX5ji24v-130" vertex="1">
          <mxGeometry width="1155" height="90" as="geometry" />
        </mxCell>
        <mxCell id="m6St6NsRdLUoVX5ji24v-132" value="&lt;span style=&quot;background-color: rgb(255, 255, 255);&quot;&gt;Timestamp&lt;span style=&quot;border-bottom: 1px dotted;&quot;&gt;&lt;/span&gt;&lt;/span&gt;" style="shape=partialRectangle;html=1;whiteSpace=wrap;connectable=0;strokeColor=inherit;overflow=hidden;fillColor=none;top=0;left=0;bottom=0;right=0;pointerEvents=1;fontSize=16;" parent="m6St6NsRdLUoVX5ji24v-131" vertex="1">
          <mxGeometry width="288" height="90" as="geometry">
            <mxRectangle width="288" height="90" as="alternateBounds" />
          </mxGeometry>
        </mxCell>
        <mxCell id="m6St6NsRdLUoVX5ji24v-133" value="&lt;u&gt;Number&lt;/u&gt;" style="shape=partialRectangle;html=1;whiteSpace=wrap;connectable=0;strokeColor=inherit;overflow=hidden;fillColor=none;top=0;left=0;bottom=0;right=0;pointerEvents=1;fontSize=16;" parent="m6St6NsRdLUoVX5ji24v-131" vertex="1">
          <mxGeometry x="288" width="290" height="90" as="geometry">
            <mxRectangle width="290" height="90" as="alternateBounds" />
          </mxGeometry>
        </mxCell>
        <mxCell id="m6St6NsRdLUoVX5ji24v-134" value="&lt;u&gt;F_Number&lt;/u&gt;" style="shape=partialRectangle;html=1;whiteSpace=wrap;connectable=0;strokeColor=inherit;overflow=hidden;fillColor=none;top=0;left=0;bottom=0;right=0;pointerEvents=1;fontSize=16;" parent="m6St6NsRdLUoVX5ji24v-131" vertex="1">
          <mxGeometry x="578" width="287" height="90" as="geometry">
            <mxRectangle width="287" height="90" as="alternateBounds" />
          </mxGeometry>
        </mxCell>
        <mxCell id="m6St6NsRdLUoVX5ji24v-143" value="&lt;u&gt;FC_ID&lt;/u&gt;" style="shape=partialRectangle;html=1;whiteSpace=wrap;connectable=0;strokeColor=inherit;overflow=hidden;fillColor=none;top=0;left=0;bottom=0;right=0;pointerEvents=1;fontSize=16;" parent="m6St6NsRdLUoVX5ji24v-131" vertex="1">
          <mxGeometry x="865" width="290" height="90" as="geometry">
            <mxRectangle width="290" height="90" as="alternateBounds" />
          </mxGeometry>
        </mxCell>
        <mxCell id="m6St6NsRdLUoVX5ji24v-149" value="&lt;font style=&quot;font-size: 32px; background-color: rgb(153, 193, 241);&quot;&gt;ISSUED_FOR&lt;/font&gt;" style="text;html=1;align=center;verticalAlign=middle;resizable=0;points=[];autosize=1;strokeColor=none;fillColor=none;" parent="1" vertex="1">
          <mxGeometry x="2550" y="670" width="230" height="50" as="geometry" />
        </mxCell>
        <mxCell id="m6St6NsRdLUoVX5ji24v-163" value="" style="shape=table;startSize=0;container=1;collapsible=0;childLayout=tableLayout;fontSize=16;" parent="1" vertex="1">
          <mxGeometry x="2570" y="760" width="1155" height="90" as="geometry" />
        </mxCell>
        <mxCell id="m6St6NsRdLUoVX5ji24v-164" value="" style="shape=tableRow;horizontal=0;startSize=0;swimlaneHead=0;swimlaneBody=0;strokeColor=inherit;top=0;left=0;bottom=0;right=0;collapsible=0;dropTarget=0;fillColor=none;points=[[0,0.5],[1,0.5]];portConstraint=eastwest;fontSize=16;textShadow=1;" parent="m6St6NsRdLUoVX5ji24v-163" vertex="1">
          <mxGeometry width="1155" height="90" as="geometry" />
        </mxCell>
        <mxCell id="m6St6NsRdLUoVX5ji24v-165" value="&lt;u&gt;F_Tracking_code&lt;/u&gt;" style="shape=partialRectangle;html=1;whiteSpace=wrap;connectable=0;strokeColor=inherit;overflow=hidden;fillColor=none;top=0;left=0;bottom=0;right=0;pointerEvents=1;fontSize=16;" parent="m6St6NsRdLUoVX5ji24v-164" vertex="1">
          <mxGeometry width="290" height="90" as="geometry">
            <mxRectangle width="290" height="90" as="alternateBounds" />
          </mxGeometry>
        </mxCell>
        <mxCell id="m6St6NsRdLUoVX5ji24v-166" value="&lt;u&gt;FL_Number&lt;/u&gt;" style="shape=partialRectangle;html=1;whiteSpace=wrap;connectable=0;strokeColor=inherit;overflow=hidden;fillColor=none;top=0;left=0;bottom=0;right=0;pointerEvents=1;fontSize=16;" parent="m6St6NsRdLUoVX5ji24v-164" vertex="1">
          <mxGeometry x="290" width="288" height="90" as="geometry">
            <mxRectangle width="288" height="90" as="alternateBounds" />
          </mxGeometry>
        </mxCell>
        <mxCell id="m6St6NsRdLUoVX5ji24v-176" value="&lt;u&gt;FSH_Number&lt;/u&gt;" style="shape=partialRectangle;html=1;whiteSpace=wrap;connectable=0;strokeColor=inherit;overflow=hidden;fillColor=none;top=0;left=0;bottom=0;right=0;pointerEvents=1;fontSize=16;" parent="m6St6NsRdLUoVX5ji24v-164" vertex="1">
          <mxGeometry x="578" width="289" height="90" as="geometry">
            <mxRectangle width="289" height="90" as="alternateBounds" />
          </mxGeometry>
        </mxCell>
        <mxCell id="m6St6NsRdLUoVX5ji24v-178" value="&lt;u&gt;FC_ID&lt;/u&gt;" style="shape=partialRectangle;html=1;whiteSpace=wrap;connectable=0;strokeColor=inherit;overflow=hidden;fillColor=none;top=0;left=0;bottom=0;right=0;pointerEvents=1;fontSize=16;" parent="m6St6NsRdLUoVX5ji24v-164" vertex="1">
          <mxGeometry x="867" width="288" height="90" as="geometry">
            <mxRectangle width="288" height="90" as="alternateBounds" />
          </mxGeometry>
        </mxCell>
        <mxCell id="m6St6NsRdLUoVX5ji24v-195" value="&lt;font style=&quot;font-size: 32px; background-color: rgb(153, 193, 241);&quot;&gt;ADDED_TO&lt;/font&gt;" style="text;html=1;align=center;verticalAlign=middle;resizable=0;points=[];autosize=1;strokeColor=none;fillColor=none;" parent="1" vertex="1">
          <mxGeometry x="65" y="940" width="200" height="50" as="geometry" />
        </mxCell>
        <mxCell id="m6St6NsRdLUoVX5ji24v-196" value="" style="shape=table;startSize=0;container=1;collapsible=0;childLayout=tableLayout;fontSize=16;" parent="1" vertex="1">
          <mxGeometry x="94" y="1010" width="1122" height="70" as="geometry" />
        </mxCell>
        <mxCell id="m6St6NsRdLUoVX5ji24v-197" value="" style="shape=tableRow;horizontal=0;startSize=0;swimlaneHead=0;swimlaneBody=0;strokeColor=inherit;top=0;left=0;bottom=0;right=0;collapsible=0;dropTarget=0;fillColor=none;points=[[0,0.5],[1,0.5]];portConstraint=eastwest;fontSize=16;" parent="m6St6NsRdLUoVX5ji24v-196" vertex="1">
          <mxGeometry width="1122" height="70" as="geometry" />
        </mxCell>
        <mxCell id="m6St6NsRdLUoVX5ji24v-198" value="&lt;span style=&quot;background-color: rgb(255, 255, 255);&quot;&gt;Quantity&lt;br&gt;&lt;/span&gt;" style="shape=partialRectangle;html=1;whiteSpace=wrap;connectable=0;strokeColor=inherit;overflow=hidden;fillColor=none;top=0;left=0;bottom=0;right=0;pointerEvents=1;fontSize=16;" parent="m6St6NsRdLUoVX5ji24v-197" vertex="1">
          <mxGeometry width="187" height="70" as="geometry">
            <mxRectangle width="187" height="70" as="alternateBounds" />
          </mxGeometry>
        </mxCell>
        <mxCell id="m6St6NsRdLUoVX5ji24v-199" value="&lt;span style=&quot;background-color: rgb(255, 255, 255);&quot;&gt;Cart_price&lt;br&gt;&lt;/span&gt;" style="shape=partialRectangle;html=1;whiteSpace=wrap;connectable=0;strokeColor=inherit;overflow=hidden;fillColor=none;top=0;left=0;bottom=0;right=0;pointerEvents=1;fontSize=16;" parent="m6St6NsRdLUoVX5ji24v-197" vertex="1">
          <mxGeometry x="187" width="187" height="70" as="geometry">
            <mxRectangle width="187" height="70" as="alternateBounds" />
          </mxGeometry>
        </mxCell>
        <mxCell id="m6St6NsRdLUoVX5ji24v-200" value="&lt;u&gt;FP_ID&lt;/u&gt;" style="shape=partialRectangle;html=1;whiteSpace=wrap;connectable=0;strokeColor=inherit;overflow=hidden;fillColor=none;top=0;left=0;bottom=0;right=0;pointerEvents=1;fontSize=16;" parent="m6St6NsRdLUoVX5ji24v-197" vertex="1">
          <mxGeometry x="374" width="187" height="70" as="geometry">
            <mxRectangle width="187" height="70" as="alternateBounds" />
          </mxGeometry>
        </mxCell>
        <mxCell id="m6St6NsRdLUoVX5ji24v-209" value="&lt;u&gt;LSC_Number&lt;/u&gt;" style="shape=partialRectangle;html=1;whiteSpace=wrap;connectable=0;strokeColor=inherit;overflow=hidden;fillColor=none;top=0;left=0;bottom=0;right=0;pointerEvents=1;fontSize=16;" parent="m6St6NsRdLUoVX5ji24v-197" vertex="1">
          <mxGeometry x="561" width="187" height="70" as="geometry">
            <mxRectangle width="187" height="70" as="alternateBounds" />
          </mxGeometry>
        </mxCell>
        <mxCell id="m6St6NsRdLUoVX5ji24v-210" value="&lt;u&gt;SC_Number&lt;/u&gt;" style="shape=partialRectangle;html=1;whiteSpace=wrap;connectable=0;strokeColor=inherit;overflow=hidden;fillColor=none;top=0;left=0;bottom=0;right=0;pointerEvents=1;fontSize=16;" parent="m6St6NsRdLUoVX5ji24v-197" vertex="1">
          <mxGeometry x="748" width="187" height="70" as="geometry">
            <mxRectangle width="187" height="70" as="alternateBounds" />
          </mxGeometry>
        </mxCell>
        <mxCell id="m6St6NsRdLUoVX5ji24v-211" value="&lt;u&gt;FC_ID&lt;/u&gt;" style="shape=partialRectangle;html=1;whiteSpace=wrap;connectable=0;strokeColor=inherit;overflow=hidden;fillColor=none;top=0;left=0;bottom=0;right=0;pointerEvents=1;fontSize=16;" parent="m6St6NsRdLUoVX5ji24v-197" vertex="1">
          <mxGeometry x="935" width="187" height="70" as="geometry">
            <mxRectangle width="187" height="70" as="alternateBounds" />
          </mxGeometry>
        </mxCell>
        <mxCell id="m6St6NsRdLUoVX5ji24v-212" value="&lt;font style=&quot;font-size: 32px; background-color: rgb(153, 193, 241);&quot;&gt;CC_SOCKET_COMPATIBLE_WITH&lt;/font&gt;" style="text;html=1;align=center;verticalAlign=middle;resizable=0;points=[];autosize=1;strokeColor=none;fillColor=none;" parent="1" vertex="1">
          <mxGeometry x="2311" y="1490" width="530" height="50" as="geometry" />
        </mxCell>
        <mxCell id="m6St6NsRdLUoVX5ji24v-214" value="" style="shape=table;startSize=0;container=1;collapsible=0;childLayout=tableLayout;fontSize=16;" parent="1" vertex="1">
          <mxGeometry x="2329" y="1600" width="340" height="70" as="geometry" />
        </mxCell>
        <mxCell id="m6St6NsRdLUoVX5ji24v-215" value="" style="shape=tableRow;horizontal=0;startSize=0;swimlaneHead=0;swimlaneBody=0;strokeColor=inherit;top=0;left=0;bottom=0;right=0;collapsible=0;dropTarget=0;fillColor=none;points=[[0,0.5],[1,0.5]];portConstraint=eastwest;fontSize=16;" parent="m6St6NsRdLUoVX5ji24v-214" vertex="1">
          <mxGeometry width="340" height="70" as="geometry" />
        </mxCell>
        <mxCell id="m6St6NsRdLUoVX5ji24v-216" value="&lt;u&gt;CPU_ID&lt;/u&gt;" style="shape=partialRectangle;html=1;whiteSpace=wrap;connectable=0;strokeColor=inherit;overflow=hidden;fillColor=none;top=0;left=0;bottom=0;right=0;pointerEvents=1;fontSize=16;" parent="m6St6NsRdLUoVX5ji24v-215" vertex="1">
          <mxGeometry width="170" height="70" as="geometry">
            <mxRectangle width="170" height="70" as="alternateBounds" />
          </mxGeometry>
        </mxCell>
        <mxCell id="m6St6NsRdLUoVX5ji24v-217" value="&lt;u&gt;COOLER_ID&lt;/u&gt;" style="shape=partialRectangle;html=1;whiteSpace=wrap;connectable=0;strokeColor=inherit;overflow=hidden;fillColor=none;top=0;left=0;bottom=0;right=0;pointerEvents=1;fontSize=16;" parent="m6St6NsRdLUoVX5ji24v-215" vertex="1">
          <mxGeometry x="170" width="170" height="70" as="geometry">
            <mxRectangle width="170" height="70" as="alternateBounds" />
          </mxGeometry>
        </mxCell>
        <mxCell id="m6St6NsRdLUoVX5ji24v-228" value="&lt;font style=&quot;font-size: 32px; background-color: rgb(153, 193, 241);&quot;&gt;MC_SOCKET_COMPATIBLE_WITH&lt;/font&gt;" style="text;html=1;align=center;verticalAlign=middle;resizable=0;points=[];autosize=1;strokeColor=none;fillColor=none;" parent="1" vertex="1">
          <mxGeometry x="2318" y="1728" width="540" height="50" as="geometry" />
        </mxCell>
        <mxCell id="m6St6NsRdLUoVX5ji24v-229" value="" style="shape=table;startSize=0;container=1;collapsible=0;childLayout=tableLayout;fontSize=16;" parent="1" vertex="1">
          <mxGeometry x="2329" y="1830" width="341" height="70" as="geometry" />
        </mxCell>
        <mxCell id="m6St6NsRdLUoVX5ji24v-230" value="" style="shape=tableRow;horizontal=0;startSize=0;swimlaneHead=0;swimlaneBody=0;strokeColor=inherit;top=0;left=0;bottom=0;right=0;collapsible=0;dropTarget=0;fillColor=none;points=[[0,0.5],[1,0.5]];portConstraint=eastwest;fontSize=16;" parent="m6St6NsRdLUoVX5ji24v-229" vertex="1">
          <mxGeometry width="341" height="70" as="geometry" />
        </mxCell>
        <mxCell id="m6St6NsRdLUoVX5ji24v-231" value="&lt;u&gt;MOTHERBOARD_ID&lt;/u&gt;" style="shape=partialRectangle;html=1;whiteSpace=wrap;connectable=0;strokeColor=inherit;overflow=hidden;fillColor=none;top=0;left=0;bottom=0;right=0;pointerEvents=1;fontSize=16;" parent="m6St6NsRdLUoVX5ji24v-230" vertex="1">
          <mxGeometry width="171" height="70" as="geometry">
            <mxRectangle width="171" height="70" as="alternateBounds" />
          </mxGeometry>
        </mxCell>
        <mxCell id="m6St6NsRdLUoVX5ji24v-232" value="&lt;u&gt;CPU_ID&lt;/u&gt;" style="shape=partialRectangle;html=1;whiteSpace=wrap;connectable=0;strokeColor=inherit;overflow=hidden;fillColor=none;top=0;left=0;bottom=0;right=0;pointerEvents=1;fontSize=16;" parent="m6St6NsRdLUoVX5ji24v-230" vertex="1">
          <mxGeometry x="171" width="170" height="70" as="geometry">
            <mxRectangle width="170" height="70" as="alternateBounds" />
          </mxGeometry>
        </mxCell>
        <mxCell id="m6St6NsRdLUoVX5ji24v-242" value="&lt;font style=&quot;font-size: 32px; background-color: rgb(153, 193, 241);&quot;&gt;CONNECTOR_COMPATIBLE_WITH&lt;/font&gt;" style="text;html=1;align=center;verticalAlign=middle;resizable=0;points=[];autosize=1;strokeColor=none;fillColor=none;" parent="1" vertex="1">
          <mxGeometry x="2312" y="1960" width="540" height="50" as="geometry" />
        </mxCell>
        <mxCell id="m6St6NsRdLUoVX5ji24v-243" value="" style="shape=table;startSize=0;container=1;collapsible=0;childLayout=tableLayout;fontSize=16;" parent="1" vertex="1">
          <mxGeometry x="2329" y="2050" width="341" height="70" as="geometry" />
        </mxCell>
        <mxCell id="m6St6NsRdLUoVX5ji24v-244" value="" style="shape=tableRow;horizontal=0;startSize=0;swimlaneHead=0;swimlaneBody=0;strokeColor=inherit;top=0;left=0;bottom=0;right=0;collapsible=0;dropTarget=0;fillColor=none;points=[[0,0.5],[1,0.5]];portConstraint=eastwest;fontSize=16;" parent="m6St6NsRdLUoVX5ji24v-243" vertex="1">
          <mxGeometry width="341" height="70" as="geometry" />
        </mxCell>
        <mxCell id="m6St6NsRdLUoVX5ji24v-245" value="&lt;u&gt;GPU_ID&lt;/u&gt;" style="shape=partialRectangle;html=1;whiteSpace=wrap;connectable=0;strokeColor=inherit;overflow=hidden;fillColor=none;top=0;left=0;bottom=0;right=0;pointerEvents=1;fontSize=16;" parent="m6St6NsRdLUoVX5ji24v-244" vertex="1">
          <mxGeometry width="171" height="70" as="geometry">
            <mxRectangle width="171" height="70" as="alternateBounds" />
          </mxGeometry>
        </mxCell>
        <mxCell id="m6St6NsRdLUoVX5ji24v-246" value="&lt;u&gt;&lt;font style=&quot;font-size: 11px;&quot;&gt;POWER_SUPPLY&lt;/font&gt;_ID&lt;/u&gt;" style="shape=partialRectangle;html=1;whiteSpace=wrap;connectable=0;strokeColor=inherit;overflow=hidden;fillColor=none;top=0;left=0;bottom=0;right=0;pointerEvents=1;fontSize=16;" parent="m6St6NsRdLUoVX5ji24v-244" vertex="1">
          <mxGeometry x="171" width="170" height="70" as="geometry">
            <mxRectangle width="170" height="70" as="alternateBounds" />
          </mxGeometry>
        </mxCell>
        <mxCell id="m6St6NsRdLUoVX5ji24v-247" value="&lt;font style=&quot;background-color: rgb(153, 193, 241);&quot;&gt;GM_SLOT_COMPATIBLE_&lt;/font&gt;&lt;font style=&quot;background-color: rgb(153, 193, 241);&quot;&gt;WITH&lt;/font&gt;" style="text;html=1;align=center;verticalAlign=middle;resizable=0;points=[];autosize=1;strokeColor=none;fillColor=none;fontSize=32;" parent="1" vertex="1">
          <mxGeometry x="2312" y="2200" width="490" height="50" as="geometry" />
        </mxCell>
        <mxCell id="m6St6NsRdLUoVX5ji24v-248" value="" style="shape=table;startSize=0;container=1;collapsible=0;childLayout=tableLayout;fontSize=16;" parent="1" vertex="1">
          <mxGeometry x="2329" y="2320" width="341" height="70" as="geometry" />
        </mxCell>
        <mxCell id="m6St6NsRdLUoVX5ji24v-249" value="" style="shape=tableRow;horizontal=0;startSize=0;swimlaneHead=0;swimlaneBody=0;strokeColor=inherit;top=0;left=0;bottom=0;right=0;collapsible=0;dropTarget=0;fillColor=none;points=[[0,0.5],[1,0.5]];portConstraint=eastwest;fontSize=16;" parent="m6St6NsRdLUoVX5ji24v-248" vertex="1">
          <mxGeometry width="341" height="70" as="geometry" />
        </mxCell>
        <mxCell id="m6St6NsRdLUoVX5ji24v-250" value="&lt;u&gt;GPU_ID&lt;/u&gt;" style="shape=partialRectangle;html=1;whiteSpace=wrap;connectable=0;strokeColor=inherit;overflow=hidden;fillColor=none;top=0;left=0;bottom=0;right=0;pointerEvents=1;fontSize=16;" parent="m6St6NsRdLUoVX5ji24v-249" vertex="1">
          <mxGeometry width="171" height="70" as="geometry">
            <mxRectangle width="171" height="70" as="alternateBounds" />
          </mxGeometry>
        </mxCell>
        <mxCell id="m6St6NsRdLUoVX5ji24v-251" value="&lt;u&gt;MOTHERBOARD_ID&lt;/u&gt;" style="shape=partialRectangle;html=1;whiteSpace=wrap;connectable=0;strokeColor=inherit;overflow=hidden;fillColor=none;top=0;left=0;bottom=0;right=0;pointerEvents=1;fontSize=16;" parent="m6St6NsRdLUoVX5ji24v-249" vertex="1">
          <mxGeometry x="171" width="170" height="70" as="geometry">
            <mxRectangle width="170" height="70" as="alternateBounds" />
          </mxGeometry>
        </mxCell>
        <mxCell id="m6St6NsRdLUoVX5ji24v-253" value="&lt;font style=&quot;background-color: rgb(153, 193, 241);&quot;&gt;SM_SLOT_COMPATIBLE_&lt;/font&gt;&lt;font style=&quot;background-color: rgb(153, 193, 241);&quot;&gt;WITH&lt;/font&gt;" style="text;html=1;align=center;verticalAlign=middle;resizable=0;points=[];autosize=1;strokeColor=none;fillColor=none;fontSize=32;" parent="1" vertex="1">
          <mxGeometry x="2312" y="2450" width="490" height="50" as="geometry" />
        </mxCell>
        <mxCell id="m6St6NsRdLUoVX5ji24v-254" value="" style="shape=table;startSize=0;container=1;collapsible=0;childLayout=tableLayout;fontSize=16;" parent="1" vertex="1">
          <mxGeometry x="2318" y="2560" width="341" height="70" as="geometry" />
        </mxCell>
        <mxCell id="m6St6NsRdLUoVX5ji24v-255" value="" style="shape=tableRow;horizontal=0;startSize=0;swimlaneHead=0;swimlaneBody=0;strokeColor=inherit;top=0;left=0;bottom=0;right=0;collapsible=0;dropTarget=0;fillColor=none;points=[[0,0.5],[1,0.5]];portConstraint=eastwest;fontSize=16;" parent="m6St6NsRdLUoVX5ji24v-254" vertex="1">
          <mxGeometry width="341" height="70" as="geometry" />
        </mxCell>
        <mxCell id="m6St6NsRdLUoVX5ji24v-256" value="&lt;u&gt;SSD_ID&lt;/u&gt;" style="shape=partialRectangle;html=1;whiteSpace=wrap;connectable=0;strokeColor=inherit;overflow=hidden;fillColor=none;top=0;left=0;bottom=0;right=0;pointerEvents=1;fontSize=16;" parent="m6St6NsRdLUoVX5ji24v-255" vertex="1">
          <mxGeometry width="171" height="70" as="geometry">
            <mxRectangle width="171" height="70" as="alternateBounds" />
          </mxGeometry>
        </mxCell>
        <mxCell id="m6St6NsRdLUoVX5ji24v-257" value="&lt;u&gt;MOTHERBOARD_ID&lt;/u&gt;" style="shape=partialRectangle;html=1;whiteSpace=wrap;connectable=0;strokeColor=inherit;overflow=hidden;fillColor=none;top=0;left=0;bottom=0;right=0;pointerEvents=1;fontSize=16;" parent="m6St6NsRdLUoVX5ji24v-255" vertex="1">
          <mxGeometry x="171" width="170" height="70" as="geometry">
            <mxRectangle width="170" height="70" as="alternateBounds" />
          </mxGeometry>
        </mxCell>
        <mxCell id="m6St6NsRdLUoVX5ji24v-258" value="&lt;font style=&quot;font-size: 32px; background-color: rgb(153, 193, 241);&quot;&gt;RM_SLOT_COMPATIBLE_&lt;font&gt;WITH&lt;/font&gt;&lt;/font&gt;" style="text;html=1;align=center;verticalAlign=middle;resizable=0;points=[];autosize=1;strokeColor=none;fillColor=none;" parent="1" vertex="1">
          <mxGeometry x="2300" y="2690" width="490" height="50" as="geometry" />
        </mxCell>
        <mxCell id="m6St6NsRdLUoVX5ji24v-259" value="" style="shape=table;startSize=0;container=1;collapsible=0;childLayout=tableLayout;fontSize=16;" parent="1" vertex="1">
          <mxGeometry x="2320" y="2800" width="341" height="70" as="geometry" />
        </mxCell>
        <mxCell id="m6St6NsRdLUoVX5ji24v-260" value="" style="shape=tableRow;horizontal=0;startSize=0;swimlaneHead=0;swimlaneBody=0;strokeColor=inherit;top=0;left=0;bottom=0;right=0;collapsible=0;dropTarget=0;fillColor=none;points=[[0,0.5],[1,0.5]];portConstraint=eastwest;fontSize=16;" parent="m6St6NsRdLUoVX5ji24v-259" vertex="1">
          <mxGeometry width="341" height="70" as="geometry" />
        </mxCell>
        <mxCell id="m6St6NsRdLUoVX5ji24v-261" value="&lt;u&gt;RAM_STICK_ID&lt;/u&gt;" style="shape=partialRectangle;html=1;whiteSpace=wrap;connectable=0;strokeColor=inherit;overflow=hidden;fillColor=none;top=0;left=0;bottom=0;right=0;pointerEvents=1;fontSize=16;" parent="m6St6NsRdLUoVX5ji24v-260" vertex="1">
          <mxGeometry width="171" height="70" as="geometry">
            <mxRectangle width="171" height="70" as="alternateBounds" />
          </mxGeometry>
        </mxCell>
        <mxCell id="m6St6NsRdLUoVX5ji24v-262" value="&lt;u&gt;MOTHERBOARD_ID&lt;/u&gt;" style="shape=partialRectangle;html=1;whiteSpace=wrap;connectable=0;strokeColor=inherit;overflow=hidden;fillColor=none;top=0;left=0;bottom=0;right=0;pointerEvents=1;fontSize=16;" parent="m6St6NsRdLUoVX5ji24v-260" vertex="1">
          <mxGeometry x="171" width="170" height="70" as="geometry">
            <mxRectangle width="170" height="70" as="alternateBounds" />
          </mxGeometry>
        </mxCell>
        <mxCell id="ULDEpZp45Wt4dGmiCeXJ-2" value="&lt;font style=&quot;font-size: 31px; background-color: rgb(153, 193, 241);&quot;&gt;ADDRESS&lt;/font&gt;" style="text;html=1;align=center;verticalAlign=middle;resizable=0;points=[];autosize=1;strokeColor=none;fillColor=none;" vertex="1" parent="1">
          <mxGeometry x="2710" y="-190" width="170" height="50" as="geometry" />
        </mxCell>
        <mxCell id="ULDEpZp45Wt4dGmiCeXJ-3" value="" style="shape=table;startSize=0;container=1;collapsible=0;childLayout=tableLayout;fontSize=16;" vertex="1" parent="1">
          <mxGeometry x="2717" y="-108" width="443" height="88" as="geometry" />
        </mxCell>
        <mxCell id="ULDEpZp45Wt4dGmiCeXJ-4" value="" style="shape=tableRow;horizontal=0;startSize=0;swimlaneHead=0;swimlaneBody=0;strokeColor=inherit;top=0;left=0;bottom=0;right=0;collapsible=0;dropTarget=0;fillColor=none;points=[[0,0.5],[1,0.5]];portConstraint=eastwest;fontSize=16;" vertex="1" parent="ULDEpZp45Wt4dGmiCeXJ-3">
          <mxGeometry width="443" height="88" as="geometry" />
        </mxCell>
        <mxCell id="ULDEpZp45Wt4dGmiCeXJ-5" value="&lt;span style=&quot;background-color: rgb(255, 255, 255);&quot;&gt;&lt;u&gt;Remainder&lt;br&gt;&lt;/u&gt;&lt;/span&gt;" style="shape=partialRectangle;html=1;whiteSpace=wrap;connectable=0;strokeColor=inherit;overflow=hidden;fillColor=none;top=0;left=0;bottom=0;right=0;pointerEvents=1;fontSize=16;" vertex="1" parent="ULDEpZp45Wt4dGmiCeXJ-4">
          <mxGeometry width="148" height="88" as="geometry">
            <mxRectangle width="148" height="88" as="alternateBounds" />
          </mxGeometry>
        </mxCell>
        <mxCell id="ULDEpZp45Wt4dGmiCeXJ-6" value="&lt;span style=&quot;background-color: rgb(255, 255, 255);&quot;&gt;&lt;u&gt;Province&lt;br&gt;&lt;/u&gt;&lt;/span&gt;" style="shape=partialRectangle;html=1;whiteSpace=wrap;connectable=0;strokeColor=inherit;overflow=hidden;fillColor=none;top=0;left=0;bottom=0;right=0;pointerEvents=1;fontSize=16;" vertex="1" parent="ULDEpZp45Wt4dGmiCeXJ-4">
          <mxGeometry x="148" width="147" height="88" as="geometry">
            <mxRectangle width="147" height="88" as="alternateBounds" />
          </mxGeometry>
        </mxCell>
        <mxCell id="ULDEpZp45Wt4dGmiCeXJ-7" value="&lt;u&gt;FC_ID&lt;/u&gt;" style="shape=partialRectangle;html=1;whiteSpace=wrap;connectable=0;strokeColor=inherit;overflow=hidden;fillColor=none;top=0;left=0;bottom=0;right=0;pointerEvents=1;fontSize=16;" vertex="1" parent="ULDEpZp45Wt4dGmiCeXJ-4">
          <mxGeometry x="295" width="148" height="88" as="geometry">
            <mxRectangle width="148" height="88" as="alternateBounds" />
          </mxGeometry>
        </mxCell>
        <mxCell id="ULDEpZp45Wt4dGmiCeXJ-18" value="&lt;font style=&quot;font-size: 32px; background-color: rgb(153, 193, 241);&quot;&gt;&lt;span class=&quot;ILfuVd&quot; lang=&quot;en&quot;&gt;&lt;span class=&quot;hgKElc&quot;&gt;BANK_TRANSACTION&lt;br&gt;&lt;/span&gt;&lt;/span&gt;&lt;/font&gt;" style="text;html=1;align=center;verticalAlign=middle;resizable=0;points=[];autosize=1;strokeColor=none;fillColor=none;" vertex="1" parent="1">
          <mxGeometry x="1450" y="80" width="350" height="50" as="geometry" />
        </mxCell>
        <mxCell id="ULDEpZp45Wt4dGmiCeXJ-19" value="" style="shape=table;startSize=0;container=1;collapsible=0;childLayout=tableLayout;fontSize=16;" vertex="1" parent="1">
          <mxGeometry x="1466" y="180" width="792" height="80" as="geometry" />
        </mxCell>
        <mxCell id="ULDEpZp45Wt4dGmiCeXJ-20" value="" style="shape=tableRow;horizontal=0;startSize=0;swimlaneHead=0;swimlaneBody=0;strokeColor=inherit;top=0;left=0;bottom=0;right=0;collapsible=0;dropTarget=0;fillColor=none;points=[[0,0.5],[1,0.5]];portConstraint=eastwest;fontSize=16;" vertex="1" parent="ULDEpZp45Wt4dGmiCeXJ-19">
          <mxGeometry width="792" height="80" as="geometry" />
        </mxCell>
        <mxCell id="ULDEpZp45Wt4dGmiCeXJ-21" value="&lt;u&gt;F_Tracking_code&lt;/u&gt;" style="shape=partialRectangle;html=1;whiteSpace=wrap;connectable=0;strokeColor=inherit;overflow=hidden;fillColor=none;top=0;left=0;bottom=0;right=0;pointerEvents=1;fontSize=16;" vertex="1" parent="ULDEpZp45Wt4dGmiCeXJ-20">
          <mxGeometry width="198" height="80" as="geometry">
            <mxRectangle width="198" height="80" as="alternateBounds" />
          </mxGeometry>
        </mxCell>
        <mxCell id="ULDEpZp45Wt4dGmiCeXJ-22" value="&lt;span style=&quot;&quot;&gt;Card_number&lt;/span&gt;" style="shape=partialRectangle;html=1;whiteSpace=wrap;connectable=0;strokeColor=inherit;overflow=hidden;fillColor=none;top=0;left=0;bottom=0;right=0;pointerEvents=1;fontSize=16;labelBackgroundColor=default;" vertex="1" parent="ULDEpZp45Wt4dGmiCeXJ-20">
          <mxGeometry x="198" width="198" height="80" as="geometry">
            <mxRectangle width="198" height="80" as="alternateBounds" />
          </mxGeometry>
        </mxCell>
        <mxCell id="ULDEpZp45Wt4dGmiCeXJ-23" value="&lt;span style=&quot;&quot;&gt;Amount&lt;br&gt;&lt;/span&gt;" style="shape=partialRectangle;html=1;whiteSpace=wrap;connectable=0;strokeColor=inherit;overflow=hidden;fillColor=none;top=0;left=0;bottom=0;right=0;pointerEvents=1;fontSize=16;labelBackgroundColor=default;" vertex="1" parent="ULDEpZp45Wt4dGmiCeXJ-20">
          <mxGeometry x="396" width="198" height="80" as="geometry">
            <mxRectangle width="198" height="80" as="alternateBounds" />
          </mxGeometry>
        </mxCell>
        <mxCell id="ULDEpZp45Wt4dGmiCeXJ-32" value="FC_ID" style="shape=partialRectangle;html=1;whiteSpace=wrap;connectable=0;strokeColor=inherit;overflow=hidden;fillColor=none;top=0;left=0;bottom=0;right=0;pointerEvents=1;fontSize=16;" vertex="1" parent="ULDEpZp45Wt4dGmiCeXJ-20">
          <mxGeometry x="594" width="198" height="80" as="geometry">
            <mxRectangle width="198" height="80" as="alternateBounds" />
          </mxGeometry>
        </mxCell>
        <mxCell id="ULDEpZp45Wt4dGmiCeXJ-35" value="&lt;span style=&quot;background-color: rgb(153, 193, 241);&quot;&gt;APPLIED_TO&lt;/span&gt;" style="text;html=1;align=center;verticalAlign=middle;resizable=0;points=[];autosize=1;strokeColor=none;fillColor=none;fontSize=32;" vertex="1" parent="1">
          <mxGeometry x="1450" y="680" width="220" height="50" as="geometry" />
        </mxCell>
        <mxCell id="ULDEpZp45Wt4dGmiCeXJ-36" value="" style="shape=table;startSize=0;container=1;collapsible=0;childLayout=tableLayout;fontSize=16;" vertex="1" parent="1">
          <mxGeometry x="1460" y="770" width="1020" height="80" as="geometry" />
        </mxCell>
        <mxCell id="ULDEpZp45Wt4dGmiCeXJ-37" value="" style="shape=tableRow;horizontal=0;startSize=0;swimlaneHead=0;swimlaneBody=0;strokeColor=inherit;top=0;left=0;bottom=0;right=0;collapsible=0;dropTarget=0;fillColor=none;points=[[0,0.5],[1,0.5]];portConstraint=eastwest;fontSize=16;textShadow=1;" vertex="1" parent="ULDEpZp45Wt4dGmiCeXJ-36">
          <mxGeometry width="1020" height="80" as="geometry" />
        </mxCell>
        <mxCell id="ULDEpZp45Wt4dGmiCeXJ-38" value="Timestamp" style="shape=partialRectangle;html=1;whiteSpace=wrap;connectable=0;strokeColor=inherit;overflow=hidden;fillColor=none;top=0;left=0;bottom=0;right=0;pointerEvents=1;fontSize=16;textShadow=1;" vertex="1" parent="ULDEpZp45Wt4dGmiCeXJ-37">
          <mxGeometry width="204" height="80" as="geometry">
            <mxRectangle width="204" height="80" as="alternateBounds" />
          </mxGeometry>
        </mxCell>
        <mxCell id="ULDEpZp45Wt4dGmiCeXJ-39" value="&lt;u&gt;FD_Code&lt;/u&gt;" style="shape=partialRectangle;html=1;whiteSpace=wrap;connectable=0;strokeColor=inherit;overflow=hidden;fillColor=none;top=0;left=0;bottom=0;right=0;pointerEvents=1;fontSize=16;textShadow=1;" vertex="1" parent="ULDEpZp45Wt4dGmiCeXJ-37">
          <mxGeometry x="204" width="204" height="80" as="geometry">
            <mxRectangle width="204" height="80" as="alternateBounds" />
          </mxGeometry>
        </mxCell>
        <mxCell id="ULDEpZp45Wt4dGmiCeXJ-40" value="&lt;u&gt;LSC_Number&lt;/u&gt;" style="shape=partialRectangle;html=1;whiteSpace=wrap;connectable=0;strokeColor=inherit;overflow=hidden;fillColor=none;top=0;left=0;bottom=0;right=0;pointerEvents=1;fontSize=16;textShadow=1;" vertex="1" parent="ULDEpZp45Wt4dGmiCeXJ-37">
          <mxGeometry x="408" width="204" height="80" as="geometry">
            <mxRectangle width="204" height="80" as="alternateBounds" />
          </mxGeometry>
        </mxCell>
        <mxCell id="ULDEpZp45Wt4dGmiCeXJ-49" value="&lt;u&gt;SC_Number&lt;/u&gt;" style="shape=partialRectangle;html=1;whiteSpace=wrap;connectable=0;strokeColor=inherit;overflow=hidden;fillColor=none;top=0;left=0;bottom=0;right=0;pointerEvents=1;fontSize=16;textShadow=1;" vertex="1" parent="ULDEpZp45Wt4dGmiCeXJ-37">
          <mxGeometry x="612" width="204" height="80" as="geometry">
            <mxRectangle width="204" height="80" as="alternateBounds" />
          </mxGeometry>
        </mxCell>
        <mxCell id="ULDEpZp45Wt4dGmiCeXJ-50" value="&lt;u&gt;FC_Code&lt;/u&gt;" style="shape=partialRectangle;html=1;whiteSpace=wrap;connectable=0;strokeColor=inherit;overflow=hidden;fillColor=none;top=0;left=0;bottom=0;right=0;pointerEvents=1;fontSize=16;textShadow=1;" vertex="1" parent="ULDEpZp45Wt4dGmiCeXJ-37">
          <mxGeometry x="816" width="204" height="80" as="geometry">
            <mxRectangle width="204" height="80" as="alternateBounds" />
          </mxGeometry>
        </mxCell>
        <mxCell id="ULDEpZp45Wt4dGmiCeXJ-51" value="" style="shape=table;startSize=0;container=1;collapsible=0;childLayout=tableLayout;fontSize=16;strokeColor=default;align=center;verticalAlign=middle;fontFamily=Helvetica;fontColor=default;fillColor=default;textShadow=1;" vertex="1" parent="1">
          <mxGeometry x="70" y="-100" width="1829" height="80" as="geometry" />
        </mxCell>
        <mxCell id="ULDEpZp45Wt4dGmiCeXJ-52" value="" style="shape=tableRow;horizontal=0;startSize=0;swimlaneHead=0;swimlaneBody=0;strokeColor=inherit;top=0;left=0;bottom=0;right=0;collapsible=0;dropTarget=0;fillColor=none;points=[[0,0.5],[1,0.5]];portConstraint=eastwest;fontSize=16;align=center;verticalAlign=middle;fontFamily=Helvetica;fontColor=default;textShadow=0;" vertex="1" parent="ULDEpZp45Wt4dGmiCeXJ-51">
          <mxGeometry width="1829" height="80" as="geometry" />
        </mxCell>
        <mxCell id="ULDEpZp45Wt4dGmiCeXJ-53" value="&lt;u&gt;C_ID &lt;br&gt;&lt;/u&gt;" style="shape=partialRectangle;html=1;whiteSpace=wrap;connectable=0;strokeColor=inherit;overflow=hidden;fillColor=none;top=0;left=0;bottom=0;right=0;pointerEvents=1;fontSize=16;align=center;verticalAlign=middle;fontFamily=Helvetica;fontColor=default;" vertex="1" parent="ULDEpZp45Wt4dGmiCeXJ-52">
          <mxGeometry width="203" height="80" as="geometry">
            <mxRectangle width="203" height="80" as="alternateBounds" />
          </mxGeometry>
        </mxCell>
        <mxCell id="ULDEpZp45Wt4dGmiCeXJ-54" value="Phone_number" style="shape=partialRectangle;html=1;whiteSpace=wrap;connectable=0;strokeColor=inherit;overflow=hidden;fillColor=none;top=0;left=0;bottom=0;right=0;pointerEvents=1;fontSize=16;align=center;verticalAlign=middle;fontFamily=Helvetica;fontColor=default;" vertex="1" parent="ULDEpZp45Wt4dGmiCeXJ-52">
          <mxGeometry x="203" width="204" height="80" as="geometry">
            <mxRectangle width="204" height="80" as="alternateBounds" />
          </mxGeometry>
        </mxCell>
        <mxCell id="ULDEpZp45Wt4dGmiCeXJ-55" value="Purchase_history" style="shape=partialRectangle;html=1;whiteSpace=wrap;connectable=0;strokeColor=inherit;overflow=hidden;fillColor=none;top=0;left=0;bottom=0;right=0;pointerEvents=1;fontSize=16;align=center;verticalAlign=middle;fontFamily=Helvetica;fontColor=default;" vertex="1" parent="ULDEpZp45Wt4dGmiCeXJ-52">
          <mxGeometry x="407" width="203" height="80" as="geometry">
            <mxRectangle width="203" height="80" as="alternateBounds" />
          </mxGeometry>
        </mxCell>
        <mxCell id="ULDEpZp45Wt4dGmiCeXJ-64" value="Wallet_balance" style="shape=partialRectangle;html=1;whiteSpace=wrap;connectable=0;strokeColor=inherit;overflow=hidden;fillColor=none;top=0;left=0;bottom=0;right=0;pointerEvents=1;fontSize=16;align=center;verticalAlign=middle;fontFamily=Helvetica;fontColor=default;" vertex="1" parent="ULDEpZp45Wt4dGmiCeXJ-52">
          <mxGeometry x="610" width="203" height="80" as="geometry">
            <mxRectangle width="203" height="80" as="alternateBounds" />
          </mxGeometry>
        </mxCell>
        <mxCell id="ULDEpZp45Wt4dGmiCeXJ-65" value="&lt;font style=&quot;font-size: 17px;&quot;&gt;First_name&lt;/font&gt;" style="shape=partialRectangle;html=1;whiteSpace=wrap;connectable=0;strokeColor=inherit;overflow=hidden;fillColor=none;top=0;left=0;bottom=0;right=0;pointerEvents=1;fontSize=16;align=center;verticalAlign=middle;fontFamily=Helvetica;fontColor=default;" vertex="1" parent="ULDEpZp45Wt4dGmiCeXJ-52">
          <mxGeometry x="813" width="204" height="80" as="geometry">
            <mxRectangle width="204" height="80" as="alternateBounds" />
          </mxGeometry>
        </mxCell>
        <mxCell id="ULDEpZp45Wt4dGmiCeXJ-66" value="Last&lt;font style=&quot;font-size: 12px;&quot;&gt;_name&lt;/font&gt;" style="shape=partialRectangle;html=1;whiteSpace=wrap;connectable=0;strokeColor=inherit;overflow=hidden;fillColor=none;top=0;left=0;bottom=0;right=0;pointerEvents=1;fontSize=16;align=center;verticalAlign=middle;fontFamily=Helvetica;fontColor=default;" vertex="1" parent="ULDEpZp45Wt4dGmiCeXJ-52">
          <mxGeometry x="1017" width="203" height="80" as="geometry">
            <mxRectangle width="203" height="80" as="alternateBounds" />
          </mxGeometry>
        </mxCell>
        <mxCell id="ULDEpZp45Wt4dGmiCeXJ-67" value="Referral_code" style="shape=partialRectangle;html=1;whiteSpace=wrap;connectable=0;strokeColor=inherit;overflow=hidden;fillColor=none;top=0;left=0;bottom=0;right=0;pointerEvents=1;fontSize=16;align=center;verticalAlign=middle;fontFamily=Helvetica;fontColor=default;" vertex="1" parent="ULDEpZp45Wt4dGmiCeXJ-52">
          <mxGeometry x="1220" width="203" height="80" as="geometry">
            <mxRectangle width="203" height="80" as="alternateBounds" />
          </mxGeometry>
        </mxCell>
        <mxCell id="ULDEpZp45Wt4dGmiCeXJ-68" value="&lt;div&gt;Timestamp&lt;/div&gt;" style="shape=partialRectangle;html=1;whiteSpace=wrap;connectable=0;strokeColor=inherit;overflow=hidden;fillColor=none;top=0;left=0;bottom=0;right=0;pointerEvents=1;fontSize=16;align=center;verticalAlign=middle;fontFamily=Helvetica;fontColor=default;" vertex="1" parent="ULDEpZp45Wt4dGmiCeXJ-52">
          <mxGeometry x="1423" width="203" height="80" as="geometry">
            <mxRectangle width="203" height="80" as="alternateBounds" />
          </mxGeometry>
        </mxCell>
        <mxCell id="ULDEpZp45Wt4dGmiCeXJ-69" value="RC_ID" style="shape=partialRectangle;html=1;whiteSpace=wrap;connectable=0;strokeColor=inherit;overflow=hidden;fillColor=none;top=0;left=0;bottom=0;right=0;pointerEvents=1;fontSize=16;align=center;verticalAlign=middle;fontFamily=Helvetica;fontColor=default;" vertex="1" parent="ULDEpZp45Wt4dGmiCeXJ-52">
          <mxGeometry x="1626" width="203" height="80" as="geometry">
            <mxRectangle width="203" height="80" as="alternateBounds" />
          </mxGeometry>
        </mxCell>
      </root>
    </mxGraphModel>
  </diagram>
</mxfile>
